<?xml version="1.0" encoding="UTF-8"?><svg xmlns="http://www.w3.org/2000/svg" xmlns:xlink="http://www.w3.org/1999/xlink" fill-opacity="1" color-rendering="auto" color-interpolation="auto" text-rendering="auto" stroke="black" stroke-linecap="square" width="595" stroke-miterlimit="10" shape-rendering="auto" stroke-opacity="1" fill="black" stroke-dasharray="none" font-weight="normal" stroke-width="1" height="285" font-family="'Dialog'" font-style="normal" stroke-linejoin="miter" font-size="12px" stroke-dashoffset="0" image-rendering="auto">
  <!--Generated by ySVG 2.5-->
  <defs id="genericDefs"/>
  <g>
    <defs id="defs1">
      <clipPath clipPathUnits="userSpaceOnUse" id="clipPath1">
        <path d="M0 0 L595 0 L595 285 L0 285 L0 0 Z"/>
      </clipPath>
      <clipPath clipPathUnits="userSpaceOnUse" id="clipPath2">
        <path d="M2661 237 L3256 237 L3256 522 L2661 522 L2661 237 Z"/>
      </clipPath>
    </defs>
    <g fill="white" text-rendering="geometricPrecision" shape-rendering="geometricPrecision" transform="translate(-2661,-237)" stroke="white">
      <rect x="2661" width="595" height="285" y="237" clip-path="url(#clipPath2)" stroke="none"/>
    </g>
    <g fill="rgb(245,245,245)" text-rendering="geometricPrecision" shape-rendering="geometricPrecision" transform="matrix(1,0,0,1,-2661,-237)" stroke="rgb(245,245,245)">
      <rect x="2676.8299" y="252.8267" clip-path="url(#clipPath2)" width="555.5601" rx="4" ry="4" height="151.875" stroke="none"/>
      <rect x="2676.8299" y="252.8267" clip-path="url(#clipPath2)" fill="rgb(235,235,235)" width="555.5601" height="38.9219" stroke="none"/>
    </g>
    <g font-size="15px" stroke-linecap="butt" transform="matrix(1,0,0,1,-2661,-237)" text-rendering="geometricPrecision" font-family="sans-serif" shape-rendering="geometricPrecision" stroke-miterlimit="1.45">
      <text x="2796.9121" xml:space="preserve" y="268.75" clip-path="url(#clipPath2)" stroke="none">Program code outside of Root Component</text>
      <text x="2727.4712" xml:space="preserve" y="286.2109" clip-path="url(#clipPath2)" stroke="none">(via the HalogenIO record produced by the `runUI` function)</text>
      <rect x="2676.8299" y="252.8267" clip-path="url(#clipPath2)" fill="none" width="555.5601" stroke-dasharray="6,2" rx="4" ry="4" height="151.875"/>
    </g>
    <g fill="rgb(255,204,0)" text-rendering="geometricPrecision" shape-rendering="geometricPrecision" transform="matrix(1,0,0,1,-2661,-237)" stroke="rgb(255,204,0)">
      <rect x="2691.8299" width="243.0488" height="66.25" y="315.4985" clip-path="url(#clipPath2)" stroke="none"/>
    </g>
    <g text-rendering="geometricPrecision" stroke-miterlimit="1.45" shape-rendering="geometricPrecision" transform="matrix(1,0,0,1,-2661,-237)" stroke-linecap="butt">
      <rect fill="none" x="2691.8299" width="243.0488" height="66.25" y="315.4985" clip-path="url(#clipPath2)"/>
      <text x="2738.0671" xml:space="preserve" y="338.8091" clip-path="url(#clipPath2)" font-family="sans-serif" stroke="none">Via HalogenIO.subscribe,</text>
      <text x="2731.1648" xml:space="preserve" y="352.7778" clip-path="url(#clipPath2)" font-family="sans-serif" stroke="none">root's message is received </text>
      <text x="2698.8298" xml:space="preserve" y="366.7466" clip-path="url(#clipPath2)" font-family="sans-serif" stroke="none">and handled by an external consumer</text>
    </g>
    <g fill="rgb(255,204,0)" text-rendering="geometricPrecision" shape-rendering="geometricPrecision" transform="matrix(1,0,0,1,-2661,-237)" stroke="rgb(255,204,0)">
      <rect x="2959.2826" width="258.1074" height="66.25" y="315.4985" clip-path="url(#clipPath2)" stroke="none"/>
    </g>
    <g text-rendering="geometricPrecision" stroke-miterlimit="1.45" shape-rendering="geometricPrecision" transform="matrix(1,0,0,1,-2661,-237)" stroke-linecap="butt">
      <rect fill="none" x="2959.2826" width="258.1074" height="66.25" y="315.4985" clip-path="url(#clipPath2)"/>
      <text x="2966.2827" xml:space="preserve" y="338.8091" clip-path="url(#clipPath2)" font-family="sans-serif" stroke="none">Via HalogenIO.query, an external Query </text>
      <text x="2989.7466" xml:space="preserve" y="352.7778" clip-path="url(#clipPath2)" font-family="sans-serif" stroke="none">is made on the root component, </text>
      <text x="2986.7349" xml:space="preserve" y="366.7466" clip-path="url(#clipPath2)" font-family="sans-serif" stroke="none">which may send back information</text>
    </g>
    <g fill="rgb(255,204,0)" text-rendering="geometricPrecision" shape-rendering="geometricPrecision" transform="matrix(1,0,0,1,-2661,-237)" stroke="rgb(255,204,0)">
      <rect x="2885.4947" width="138.2305" height="30" y="476.7396" clip-path="url(#clipPath2)" stroke="none"/>
    </g>
    <g text-rendering="geometricPrecision" stroke-miterlimit="1.45" shape-rendering="geometricPrecision" transform="matrix(1,0,0,1,-2661,-237)" stroke-linecap="butt">
      <rect fill="none" x="2885.4947" width="138.2305" height="30" y="476.7396" clip-path="url(#clipPath2)"/>
      <text x="2892.4946" xml:space="preserve" y="495.8939" clip-path="url(#clipPath2)" font-family="sans-serif" stroke="none">top-level component</text>
      <path fill="none" d="M3088.3364 381.7485 L3088.3364 491.7396 L3031.7251 491.7396" clip-path="url(#clipPath2)"/>
      <path d="M3023.7251 491.7396 L3035.7251 496.7396 L3032.7251 491.7396 L3035.7251 486.7396 Z" clip-path="url(#clipPath2)" stroke="none"/>
      <text x="3122.6448" xml:space="preserve" y="443.2772" clip-path="url(#clipPath2)" font-family="sans-serif" stroke="none">External code tells </text>
      <text x="3136.5579" xml:space="preserve" y="457.2459" clip-path="url(#clipPath2)" font-family="sans-serif" stroke="none">component to </text>
      <text x="3129.4182" xml:space="preserve" y="471.2147" clip-path="url(#clipPath2)" font-family="sans-serif" stroke="none">evaluate a query</text>
      <path fill="none" d="M2885.4946 491.7396 L2813.3542 491.7396 L2813.3542 389.7485" clip-path="url(#clipPath2)"/>
      <path d="M2813.3542 381.7485 L2808.3542 393.7485 L2813.3542 390.7485 L2818.3542 393.7485 Z" clip-path="url(#clipPath2)" stroke="none"/>
      <text x="2688.3628" xml:space="preserve" y="457.9311" clip-path="url(#clipPath2)" font-family="sans-serif" stroke="none">Component raises</text>
      <text x="2710.3091" xml:space="preserve" y="471.8998" clip-path="url(#clipPath2)" font-family="sans-serif" stroke="none">a message</text>
    </g>
  </g>
</svg>
