<?xml version="1.0" encoding="UTF-8"?><svg xmlns="http://www.w3.org/2000/svg" xmlns:xlink="http://www.w3.org/1999/xlink" fill-opacity="1" color-rendering="auto" color-interpolation="auto" text-rendering="auto" stroke="black" stroke-linecap="square" width="2207" stroke-miterlimit="10" shape-rendering="auto" stroke-opacity="1" fill="black" stroke-dasharray="none" font-weight="normal" stroke-width="1" height="1204" font-family="'Dialog'" font-style="normal" stroke-linejoin="miter" font-size="12px" stroke-dashoffset="0" image-rendering="auto">
  <!--Generated by ySVG 2.5-->
  <defs id="genericDefs"/>
  <g>
    <defs id="defs1">
      <clipPath clipPathUnits="userSpaceOnUse" id="clipPath1">
        <path d="M0 0 L2207 0 L2207 1204 L0 1204 L0 0 Z"/>
      </clipPath>
      <clipPath clipPathUnits="userSpaceOnUse" id="clipPath2">
        <path d="M1060 107 L3267 107 L3267 1311 L1060 1311 L1060 107 Z"/>
      </clipPath>
    </defs>
    <g fill="white" text-rendering="geometricPrecision" shape-rendering="geometricPrecision" transform="translate(-1060,-107)" stroke="white">
      <rect x="1060" width="2207" height="1204" y="107" clip-path="url(#clipPath2)" stroke="none"/>
    </g>
    <g fill="rgb(255,204,0)" text-rendering="geometricPrecision" shape-rendering="geometricPrecision" transform="matrix(1,0,0,1,-1060,-107)" stroke="rgb(255,204,0)">
      <rect x="1193.5227" width="207.3418" height="30" y="288.5361" clip-path="url(#clipPath2)" stroke="none"/>
    </g>
    <g text-rendering="geometricPrecision" stroke-miterlimit="1.45" shape-rendering="geometricPrecision" transform="matrix(1,0,0,1,-1060,-107)" stroke-linecap="butt">
      <rect fill="none" x="1193.5227" width="207.3418" height="30" y="288.5361" clip-path="url(#clipPath2)"/>
      <text x="1200.5227" xml:space="preserve" y="307.6904" clip-path="url(#clipPath2)" font-family="sans-serif" stroke="none">component receives input value</text>
    </g>
    <g fill="rgb(255,204,0)" text-rendering="geometricPrecision" shape-rendering="geometricPrecision" transform="matrix(1,0,0,1,-1060,-107)" stroke="rgb(255,204,0)">
      <rect x="1454.0513" width="164.0473" height="30" y="288.5361" clip-path="url(#clipPath2)" stroke="none"/>
    </g>
    <g text-rendering="geometricPrecision" stroke-miterlimit="1.45" shape-rendering="geometricPrecision" transform="matrix(1,0,0,1,-1060,-107)" stroke-linecap="butt">
      <rect fill="none" x="1454.0513" width="164.0473" height="30" y="288.5361" clip-path="url(#clipPath2)"/>
      <text x="1461.8424" xml:space="preserve" y="307.6904" clip-path="url(#clipPath2)" font-family="sans-serif" stroke="none">component's initial state</text>
    </g>
    <g fill="rgb(255,204,0)" text-rendering="geometricPrecision" shape-rendering="geometricPrecision" transform="matrix(1,0,0,1,-1060,-107)" stroke="rgb(255,204,0)">
      <rect x="1705.6247" width="190.4785" height="30" y="288.5361" clip-path="url(#clipPath2)" stroke="none"/>
    </g>
    <g text-rendering="geometricPrecision" stroke-miterlimit="1.45" shape-rendering="geometricPrecision" transform="matrix(1,0,0,1,-1060,-107)" stroke-linecap="butt">
      <rect fill="none" x="1705.6247" width="190.4785" height="30" y="288.5361" clip-path="url(#clipPath2)"/>
      <text x="1712.6246" xml:space="preserve" y="307.6904" clip-path="url(#clipPath2)" font-family="sans-serif" stroke="none">component's initial rendering</text>
    </g>
    <g fill="rgb(255,204,0)" text-rendering="geometricPrecision" shape-rendering="geometricPrecision" transform="matrix(1,0,0,1,-1060,-107)" stroke="rgb(255,204,0)">
      <rect x="1710.0045" width="181.7188" height="30" y="780.8313" clip-path="url(#clipPath2)" stroke="none"/>
    </g>
    <g text-rendering="geometricPrecision" stroke-miterlimit="1.45" shape-rendering="geometricPrecision" transform="matrix(1,0,0,1,-1060,-107)" stroke-linecap="butt">
      <rect fill="none" x="1710.0045" width="181.7188" height="30" y="780.8313" clip-path="url(#clipPath2)"/>
      <text x="1717.0045" xml:space="preserve" y="799.9856" clip-path="url(#clipPath2)" font-family="sans-serif" stroke="none">component waits for events</text>
    </g>
    <g fill="rgb(255,204,0)" text-rendering="geometricPrecision" shape-rendering="geometricPrecision" transform="matrix(1,0,0,1,-1060,-107)" stroke="rgb(255,204,0)">
      <rect x="1696.2409" width="209.2461" height="30" y="881.5493" clip-path="url(#clipPath2)" stroke="none"/>
    </g>
    <g text-rendering="geometricPrecision" stroke-miterlimit="1.45" shape-rendering="geometricPrecision" transform="matrix(1,0,0,1,-1060,-107)" stroke-linecap="butt">
      <rect fill="none" x="1696.2409" width="209.2461" height="30" y="881.5493" clip-path="url(#clipPath2)"/>
      <text x="1703.2408" xml:space="preserve" y="900.7036" clip-path="url(#clipPath2)" font-family="sans-serif" stroke="none">event on component is detected</text>
    </g>
    <g fill="rgb(255,204,0)" text-rendering="geometricPrecision" shape-rendering="geometricPrecision" transform="matrix(1,0,0,1,-1060,-107)" stroke="rgb(255,204,0)">
      <rect x="1953.8681" width="128.375" height="30" y="995.2398" clip-path="url(#clipPath2)" stroke="none"/>
    </g>
    <g text-rendering="geometricPrecision" stroke-miterlimit="1.45" shape-rendering="geometricPrecision" transform="matrix(1,0,0,1,-1060,-107)" stroke-linecap="butt">
      <rect fill="none" x="1953.8681" width="128.375" height="30" y="995.2398" clip-path="url(#clipPath2)"/>
      <text x="1960.8682" xml:space="preserve" y="1014.3941" clip-path="url(#clipPath2)" font-family="sans-serif" stroke="none">which gets ignored</text>
    </g>
    <g fill="rgb(255,204,0)" text-rendering="geometricPrecision" shape-rendering="geometricPrecision" transform="matrix(1,0,0,1,-1060,-107)" stroke="rgb(255,204,0)">
      <path d="M1718.4136 1010.2398 L1800.8639 968.2803 L1883.3142 1010.2398 L1800.8639 1052.1993 Z" fill-rule="evenodd" clip-path="url(#clipPath2)" stroke="none"/>
    </g>
    <g text-rendering="geometricPrecision" stroke-miterlimit="1.45" shape-rendering="geometricPrecision" transform="matrix(1,0,0,1,-1060,-107)" stroke-linecap="butt">
      <path fill="none" d="M1718.4136 1010.2398 L1800.8639 968.2803 L1883.3142 1010.2398 L1800.8639 1052.1993 Z" fill-rule="evenodd" clip-path="url(#clipPath2)"/>
      <text x="1745.4401" xml:space="preserve" y="1014.3941" clip-path="url(#clipPath2)" font-family="sans-serif" stroke="none">Maybe ActionType</text>
    </g>
    <g fill="rgb(255,204,0)" text-rendering="geometricPrecision" shape-rendering="geometricPrecision" transform="matrix(1,0,0,1,-1060,-107)" stroke="rgb(255,204,0)">
      <rect x="2595.3276" width="178.7305" height="30" y="349.5247" clip-path="url(#clipPath2)" stroke="none"/>
    </g>
    <g text-rendering="geometricPrecision" stroke-miterlimit="1.45" shape-rendering="geometricPrecision" transform="matrix(1,0,0,1,-1060,-107)" stroke-linecap="butt">
      <rect fill="none" x="2595.3276" width="178.7305" height="30" y="349.5247" clip-path="url(#clipPath2)"/>
      <text x="2602.3276" xml:space="preserve" y="368.679" clip-path="url(#clipPath2)" font-family="sans-serif" stroke="none">child's message is received</text>
    </g>
    <g fill="rgb(255,204,0)" text-rendering="geometricPrecision" shape-rendering="geometricPrecision" transform="matrix(1,0,0,1,-1060,-107)" stroke="rgb(255,204,0)">
      <rect x="1914.2112" width="400.2031" height="30" y="1129.1128" clip-path="url(#clipPath2)" stroke="none"/>
    </g>
    <g text-rendering="geometricPrecision" stroke-miterlimit="1.45" shape-rendering="geometricPrecision" transform="matrix(1,0,0,1,-1060,-107)" stroke-linecap="butt">
      <rect fill="none" x="1914.2112" width="400.2031" height="30" y="1129.1128" clip-path="url(#clipPath2)"/>
      <text x="1921.2112" xml:space="preserve" y="1148.2671" clip-path="url(#clipPath2)" font-family="sans-serif" stroke="none">child is destroyed and a new one is potentially made in its place</text>
    </g>
    <g fill="rgb(255,204,0)" text-rendering="geometricPrecision" shape-rendering="geometricPrecision" transform="matrix(1,0,0,1,-1060,-107)" stroke="rgb(255,204,0)">
      <rect x="2365.4818" width="104.7148" height="30" y="874.2106" clip-path="url(#clipPath2)" stroke="none"/>
    </g>
    <g text-rendering="geometricPrecision" stroke-miterlimit="1.45" shape-rendering="geometricPrecision" transform="matrix(1,0,0,1,-1060,-107)" stroke-linecap="butt">
      <rect fill="none" x="2365.4818" width="104.7148" height="30" y="874.2106" clip-path="url(#clipPath2)"/>
      <text x="2372.4819" xml:space="preserve" y="893.3649" clip-path="url(#clipPath2)" font-family="sans-serif" stroke="none">re-render state</text>
    </g>
    <g fill="rgb(255,204,0)" text-rendering="geometricPrecision" shape-rendering="geometricPrecision" transform="matrix(1,0,0,1,-1060,-107)" stroke="rgb(255,204,0)">
      <path d="M2533.2773 889.2106 L2631.1279 846.0036 L2728.9785 889.2106 L2631.1279 932.4176 Z" fill-rule="evenodd" clip-path="url(#clipPath2)" stroke="none"/>
    </g>
    <g text-rendering="geometricPrecision" stroke-miterlimit="1.45" shape-rendering="geometricPrecision" transform="matrix(1,0,0,1,-1060,-107)" stroke-linecap="butt">
      <path fill="none" d="M2533.2773 889.2106 L2631.1279 846.0036 L2728.9785 889.2106 L2631.1279 932.4176 Z" fill-rule="evenodd" clip-path="url(#clipPath2)"/>
      <text x="2554.4844" xml:space="preserve" y="893.3649" clip-path="url(#clipPath2)" font-family="sans-serif" stroke="none">Component has children?</text>
    </g>
    <g fill="rgb(255,204,0)" text-rendering="geometricPrecision" shape-rendering="geometricPrecision" transform="matrix(1,0,0,1,-1060,-107)" stroke="rgb(255,204,0)">
      <path d="M2748.3171 1028.2979 L2948.5637 940.998 L3148.8105 1028.2979 L2948.5637 1115.5977 Z" fill-rule="evenodd" clip-path="url(#clipPath2)" stroke="none"/>
    </g>
    <g text-rendering="geometricPrecision" stroke-miterlimit="1.45" shape-rendering="geometricPrecision" transform="matrix(1,0,0,1,-1060,-107)" stroke-linecap="butt">
      <path fill="none" d="M2748.3171 1028.2979 L2948.5637 940.998 L3148.8105 1028.2979 L2948.5637 1115.5977 Z" fill-rule="evenodd" clip-path="url(#clipPath2)"/>
      <text x="2828.4143" xml:space="preserve" y="1018.4834" clip-path="url(#clipPath2)" font-family="sans-serif" stroke="none">new input value /= original input value?</text>
      <text x="2939.6721" xml:space="preserve" y="1032.4521" clip-path="url(#clipPath2)" font-family="sans-serif" stroke="none">OR</text>
      <text x="2800.7932" xml:space="preserve" y="1046.4209" clip-path="url(#clipPath2)" font-family="sans-serif" stroke="none">new slot index value /= original slot index value?</text>
    </g>
    <g fill="rgb(255,204,0)" text-rendering="geometricPrecision" shape-rendering="geometricPrecision" transform="matrix(1,0,0,1,-1060,-107)" stroke="rgb(255,204,0)">
      <rect x="2559.9806" width="135.3594" height="30" y="1013.2978" clip-path="url(#clipPath2)" stroke="none"/>
    </g>
    <g text-rendering="geometricPrecision" stroke-miterlimit="1.45" shape-rendering="geometricPrecision" transform="matrix(1,0,0,1,-1060,-107)" stroke-linecap="butt">
      <rect fill="none" x="2559.9806" width="135.3594" height="30" y="1013.2978" clip-path="url(#clipPath2)"/>
      <text x="2570.5518" xml:space="preserve" y="1025.4678" clip-path="url(#clipPath2)" font-family="sans-serif" stroke="none">child is unaffected </text>
      <text x="2566.9805" xml:space="preserve" y="1039.4365" clip-path="url(#clipPath2)" font-family="sans-serif" stroke="none">and not re-rendered</text>
    </g>
    <g fill="rgb(255,204,0)" text-rendering="geometricPrecision" shape-rendering="geometricPrecision" transform="matrix(1,0,0,1,-1060,-107)" stroke="rgb(255,204,0)">
      <path d="M2520.1091 1144.1128 L2627.6602 1075.4293 L2735.2114 1144.1128 L2627.6602 1212.7963 Z" fill-rule="evenodd" clip-path="url(#clipPath2)" stroke="none"/>
    </g>
    <g text-rendering="geometricPrecision" stroke-miterlimit="1.45" shape-rendering="geometricPrecision" transform="matrix(1,0,0,1,-1060,-107)" stroke-linecap="butt">
      <path fill="none" d="M2520.1091 1144.1128 L2627.6602 1075.4293 L2735.2114 1144.1128 L2627.6602 1212.7963 Z" fill-rule="evenodd" clip-path="url(#clipPath2)"/>
      <text x="2551.9922" xml:space="preserve" y="1134.2983" clip-path="url(#clipPath2)" font-family="sans-serif" stroke="none">Child's `finalize` function</text>
      <text x="2605.9512" xml:space="preserve" y="1148.2671" clip-path="url(#clipPath2)" font-family="sans-serif" stroke="none">returns</text>
      <text x="2567.5547" xml:space="preserve" y="1162.2358" clip-path="url(#clipPath2)" font-family="sans-serif" stroke="none">Maybe (ActionType)</text>
    </g>
    <g fill="rgb(255,204,0)" text-rendering="geometricPrecision" shape-rendering="geometricPrecision" transform="matrix(1,0,0,1,-1060,-107)" stroke="rgb(255,204,0)">
      <rect x="2798.683" width="299.7617" height="30.9566" y="873.7323" clip-path="url(#clipPath2)" stroke="none"/>
    </g>
    <g text-rendering="geometricPrecision" stroke-miterlimit="1.45" shape-rendering="geometricPrecision" transform="matrix(1,0,0,1,-1060,-107)" stroke-linecap="butt">
      <rect fill="none" x="2798.683" width="299.7617" height="30.9566" y="873.7323" clip-path="url(#clipPath2)"/>
      <text x="2805.6829" xml:space="preserve" y="893.3649" clip-path="url(#clipPath2)" font-family="sans-serif" stroke="none">Component passes an Input value to each child</text>
    </g>
    <g fill="rgb(255,204,0)" text-rendering="geometricPrecision" shape-rendering="geometricPrecision" transform="matrix(1,0,0,1,-1060,-107)" stroke="rgb(255,204,0)">
      <path d="M1680.8843 566 L1800.8639 506.285 L1920.8436 566 L1800.8639 625.715 Z" fill-rule="evenodd" clip-path="url(#clipPath2)" stroke="none"/>
    </g>
    <g text-rendering="geometricPrecision" stroke-miterlimit="1.45" shape-rendering="geometricPrecision" transform="matrix(1,0,0,1,-1060,-107)" stroke-linecap="butt">
      <path fill="none" d="M1680.8843 566 L1800.8639 506.285 L1920.8436 566 L1800.8639 625.715 Z" fill-rule="evenodd" clip-path="url(#clipPath2)"/>
      <text x="1717.9156" xml:space="preserve" y="563.1699" clip-path="url(#clipPath2)" font-family="sans-serif" stroke="none">`initialize` function returns </text>
      <text x="1740.7584" xml:space="preserve" y="577.1387" clip-path="url(#clipPath2)" font-family="sans-serif" stroke="none">Maybe (ActionType)</text>
    </g>
    <g fill="rgb(255,204,0)" text-rendering="geometricPrecision" shape-rendering="geometricPrecision" transform="matrix(1,0,0,1,-1060,-107)" stroke="rgb(255,204,0)">
      <path d="M2391.0979 512.056 L2486.7212 465.3603 L2582.3447 512.056 L2486.7212 558.7518 Z" fill-rule="evenodd" clip-path="url(#clipPath2)" stroke="none"/>
    </g>
    <g text-rendering="geometricPrecision" stroke-miterlimit="1.45" shape-rendering="geometricPrecision" transform="matrix(1,0,0,1,-1060,-107)" stroke-linecap="butt">
      <path fill="none" d="M2391.0979 512.056 L2486.7212 465.3603 L2582.3447 512.056 L2486.7212 558.7518 Z" fill-rule="evenodd" clip-path="url(#clipPath2)"/>
      <text x="2423.6948" xml:space="preserve" y="509.226" clip-path="url(#clipPath2)" font-family="sans-serif" stroke="none">Is message-emitting </text>
      <text x="2422.0688" xml:space="preserve" y="523.1947" clip-path="url(#clipPath2)" font-family="sans-serif" stroke="none">component the Root?</text>
      <path fill="none" d="M1400.8645 303.5361 L1446.0513 303.5361" clip-path="url(#clipPath2)"/>
      <path d="M1454.0513 303.5361 L1442.0513 298.5361 L1445.0513 303.5361 L1442.0513 308.5361 Z" clip-path="url(#clipPath2)" stroke="none"/>
      <text x="1409.9794" xml:space="preserve" y="323.7217" clip-path="url(#clipPath2)" font-family="sans-serif" stroke="none">which</text>
      <text x="1411.0018" xml:space="preserve" y="337.6904" clip-path="url(#clipPath2)" font-family="sans-serif" stroke="none">maps</text>
      <text x="1421.4344" xml:space="preserve" y="351.6592" clip-path="url(#clipPath2)" font-family="sans-serif" stroke="none">to</text>
      <path fill="none" d="M1618.0985 303.5361 L1697.6246 303.5361" clip-path="url(#clipPath2)"/>
      <path d="M1705.6246 303.5361 L1693.6246 298.5361 L1696.6246 303.5361 L1693.6246 308.5361 Z" clip-path="url(#clipPath2)" stroke="none"/>
      <text x="1641.6906" xml:space="preserve" y="332.485" clip-path="url(#clipPath2)" font-family="sans-serif" stroke="none">which </text>
      <text x="1633.4025" xml:space="preserve" y="346.4538" clip-path="url(#clipPath2)" font-family="sans-serif" stroke="none">produces</text>
    </g>
    <g stroke-linecap="round" transform="matrix(1,0,0,1,-1060,-107)" fill="red" text-rendering="geometricPrecision" shape-rendering="geometricPrecision" stroke-dasharray="4,3,0,3" stroke="red" stroke-miterlimit="1.45">
      <path fill="none" d="M1800.8639 810.8313 L1800.8639 873.5493" clip-path="url(#clipPath2)"/>
      <path d="M1800.8639 881.5493 L1805.8639 869.5493 L1800.8639 872.5493 L1795.8639 869.5493 Z" clip-path="url(#clipPath2)" stroke="none"/>
    </g>
    <g text-rendering="geometricPrecision" stroke-miterlimit="1.45" shape-rendering="geometricPrecision" transform="matrix(1,0,0,1,-1060,-107)" stroke-linecap="butt">
      <path fill="none" d="M1800.8639 911.5493 L1800.8639 960.2675" clip-path="url(#clipPath2)"/>
      <path d="M1800.8639 968.2675 L1805.8639 956.2675 L1800.8639 959.2675 L1795.8639 956.2675 Z" clip-path="url(#clipPath2)" stroke="none"/>
      <text x="1826.0063" xml:space="preserve" y="942.3296" clip-path="url(#clipPath2)" font-family="sans-serif" stroke="none">which gets mapped to </text>
      <path fill="none" d="M1883.2917 1010.2398 L1945.8682 1010.2398" clip-path="url(#clipPath2)"/>
      <path d="M1953.8682 1010.2398 L1941.8682 1005.2398 L1944.8682 1010.2398 L1941.8682 1015.2398 Z" clip-path="url(#clipPath2)" stroke="none"/>
      <text x="1910.2948" xml:space="preserve" y="984.3941" clip-path="url(#clipPath2)" font-family="sans-serif" stroke="none">Nothing</text>
    </g>
    <g stroke-linecap="round" transform="matrix(1,0,0,1,-1060,-107)" stroke-dashoffset="2" text-rendering="geometricPrecision" shape-rendering="geometricPrecision" stroke-dasharray="0,12" stroke-width="3" stroke-miterlimit="1.45">
      <path fill="none" d="M1914.2112 1144.1128 L1495.2289 1144.1128 L1495.2289 509.1982 L1297.1936 509.1982 L1297.1936 328.5361" clip-path="url(#clipPath2)"/>
      <path d="M1297.1936 318.5361 L1290.9436 333.5361 L1297.1936 329.7861 L1303.4436 333.5361 Z" clip-path="url(#clipPath2)" stroke="none"/>
      <path fill="none" d="M2470.1968 889.2106 L2523.2568 889.2106" clip-path="url(#clipPath2)"/>
      <path d="M2533.2568 889.2106 L2518.2568 882.9606 L2522.0068 889.2106 L2518.2568 895.4606 Z" clip-path="url(#clipPath2)" stroke="none"/>
    </g>
    <g text-rendering="geometricPrecision" stroke-miterlimit="1.45" shape-rendering="geometricPrecision" transform="matrix(1,0,0,1,-1060,-107)" stroke-linecap="butt">
      <path fill="none" d="M2748.3516 1028.2979 L2703.3398 1028.2979" clip-path="url(#clipPath2)"/>
      <path d="M2695.3398 1028.2979 L2707.3398 1033.2979 L2704.3398 1028.2979 L2707.3398 1023.2979 Z" clip-path="url(#clipPath2)" stroke="none"/>
      <text x="2724.9988" xml:space="preserve" y="1005.9908" clip-path="url(#clipPath2)" font-family="sans-serif" stroke="none">No</text>
      <path fill="none" d="M2948.5637 1115.5831 L2948.5637 1144.1128 L2743.1897 1144.1128" clip-path="url(#clipPath2)"/>
      <path d="M2735.1897 1144.1128 L2747.1897 1149.1128 L2744.1897 1144.1128 L2747.1897 1139.1128 Z" clip-path="url(#clipPath2)" stroke="none"/>
      <text x="2894.4202" xml:space="preserve" y="1123.8821" clip-path="url(#clipPath2)" font-family="sans-serif" stroke="none">Yes</text>
      <path fill="none" d="M2520.0967 1144.1128 L2322.4143 1144.1128" clip-path="url(#clipPath2)"/>
      <path d="M2314.4143 1144.1128 L2326.4143 1149.1128 L2323.4143 1144.1128 L2326.4143 1139.1128 Z" clip-path="url(#clipPath2)" stroke="none"/>
      <text x="2430.1509" xml:space="preserve" y="1136.4297" clip-path="url(#clipPath2)" font-family="sans-serif" stroke="none">Nothing</text>
      <path fill="none" d="M2728.9705 889.2106 L2790.6829 889.2106" clip-path="url(#clipPath2)"/>
      <path d="M2798.6829 889.2106 L2786.6829 884.2106 L2789.6829 889.2106 L2786.6829 894.2106 Z" clip-path="url(#clipPath2)" stroke="none"/>
      <text x="2735.9785" xml:space="preserve" y="863.3649" clip-path="url(#clipPath2)" font-family="sans-serif" stroke="none">Yes</text>
      <path fill="none" d="M2948.5637 904.6889 L2948.5637 932.993" clip-path="url(#clipPath2)"/>
      <path d="M2948.5637 940.993 L2953.5637 928.993 L2948.5637 931.993 L2943.5637 928.993 Z" clip-path="url(#clipPath2)" stroke="none"/>
      <path fill="none" d="M1800.8639 625.7303 L1800.8639 772.8313" clip-path="url(#clipPath2)"/>
      <path d="M1800.8639 780.8313 L1805.8639 768.8313 L1800.8639 771.8313 L1795.8639 768.8313 Z" clip-path="url(#clipPath2)" stroke="none"/>
      <text x="1807.2711" xml:space="preserve" y="643.8536" clip-path="url(#clipPath2)" font-family="sans-serif" stroke="none">Nothing</text>
    </g>
    <g stroke-linecap="round" transform="matrix(1,0,0,1,-1060,-107)" stroke-dashoffset="2" text-rendering="geometricPrecision" shape-rendering="geometricPrecision" stroke-dasharray="0,8" stroke-width="2" stroke-miterlimit="1.45">
      <path fill="none" d="M2486.7212 465.3882 L2486.7212 436.3824 L2684.6929 436.3824 L2684.6929 388.5247" clip-path="url(#clipPath2)"/>
      <path d="M2684.6929 379.5247 L2679.0679 393.0247 L2684.6929 389.6497 L2690.3179 393.0247 Z" clip-path="url(#clipPath2)" stroke="none"/>
    </g>
    <g text-rendering="geometricPrecision" stroke-miterlimit="1.45" shape-rendering="geometricPrecision" font-family="sans-serif" transform="matrix(1,0,0,1,-1060,-107)" stroke-linecap="butt">
      <text x="2503.6775" xml:space="preserve" y="423.3759" clip-path="url(#clipPath2)" stroke="none">No</text>
    </g>
    <g fill="rgb(245,245,245)" text-rendering="geometricPrecision" shape-rendering="geometricPrecision" transform="matrix(1,0,0,1,-1060,-107)" stroke="rgb(245,245,245)">
      <rect x="2897.5769" y="425.0092" clip-path="url(#clipPath2)" width="340" rx="4" ry="4" height="239.6714" stroke="none"/>
      <rect x="2897.5769" y="425.0092" clip-path="url(#clipPath2)" fill="rgb(235,235,235)" width="340" height="38.9219" stroke="none"/>
    </g>
    <g font-size="15px" stroke-linecap="butt" transform="matrix(1,0,0,1,-1060,-107)" text-rendering="geometricPrecision" font-family="sans-serif" shape-rendering="geometricPrecision" stroke-miterlimit="1.45">
      <text x="2909.8792" xml:space="preserve" y="440.9325" clip-path="url(#clipPath2)" stroke="none">Program code outside of Root Component</text>
      <text x="2935.0708" xml:space="preserve" y="458.3934" clip-path="url(#clipPath2)" stroke="none">(using HalogenIO record type: `io`)</text>
      <rect x="2897.5769" y="425.0092" clip-path="url(#clipPath2)" fill="none" width="340" stroke-dasharray="6,2" rx="4" ry="4" height="239.6714"/>
    </g>
    <g fill="rgb(255,204,0)" text-rendering="geometricPrecision" shape-rendering="geometricPrecision" transform="matrix(1,0,0,1,-1060,-107)" stroke="rgb(255,204,0)">
      <rect x="2928.4333" width="278.2871" height="66.25" y="478.931" clip-path="url(#clipPath2)" stroke="none"/>
    </g>
    <g text-rendering="geometricPrecision" stroke-miterlimit="1.45" shape-rendering="geometricPrecision" transform="matrix(1,0,0,1,-1060,-107)" stroke-linecap="butt">
      <rect fill="none" x="2928.4333" width="278.2871" height="66.25" y="478.931" clip-path="url(#clipPath2)"/>
      <text x="2992.2898" xml:space="preserve" y="502.2416" clip-path="url(#clipPath2)" font-family="sans-serif" stroke="none">Via HalogenIO.subscribe,</text>
      <text x="2935.4333" xml:space="preserve" y="516.2103" clip-path="url(#clipPath2)" font-family="sans-serif" stroke="none">top-level component's message is received </text>
      <text x="2974.0349" xml:space="preserve" y="530.1791" clip-path="url(#clipPath2)" font-family="sans-serif" stroke="none">and passed to external listener</text>
    </g>
    <g fill="rgb(255,204,0)" text-rendering="geometricPrecision" shape-rendering="geometricPrecision" transform="matrix(1,0,0,1,-1060,-107)" stroke="rgb(255,204,0)">
      <rect x="2938.5232" width="258.1074" height="66.25" y="580.9233" clip-path="url(#clipPath2)" stroke="none"/>
    </g>
    <g text-rendering="geometricPrecision" stroke-miterlimit="1.45" shape-rendering="geometricPrecision" transform="matrix(1,0,0,1,-1060,-107)" stroke-linecap="butt">
      <rect fill="none" x="2938.5232" width="258.1074" height="66.25" y="580.9233" clip-path="url(#clipPath2)"/>
      <text x="2945.5232" xml:space="preserve" y="604.2339" clip-path="url(#clipPath2)" font-family="sans-serif" stroke="none">Via HalogenIO.query, an external Query </text>
      <text x="2968.9871" xml:space="preserve" y="618.2026" clip-path="url(#clipPath2)" font-family="sans-serif" stroke="none">is made on the root component, </text>
      <text x="2965.9753" xml:space="preserve" y="632.1714" clip-path="url(#clipPath2)" font-family="sans-serif" stroke="none">which may send back information</text>
      <path fill="none" stroke-dasharray="12,4" d="M2582.3369 512.056 L2919.4333 512.056" stroke-width="2" clip-path="url(#clipPath2)"/>
      <path stroke-dasharray="12,4" d="M2928.4333 512.056 L2914.9333 506.431 L2918.3083 512.056 L2914.9333 517.681 Z" stroke-width="2" clip-path="url(#clipPath2)" stroke="none"/>
      <text x="2631.0361" xml:space="preserve" y="498.2851" clip-path="url(#clipPath2)" font-family="sans-serif" stroke="none">Yes</text>
    </g>
    <g fill="rgb(245,245,245)" text-rendering="geometricPrecision" shape-rendering="geometricPrecision" transform="matrix(1,0,0,1,-1060,-107)" stroke="rgb(245,245,245)">
      <rect x="1075.1292" y="127.7171" clip-path="url(#clipPath2)" width="338.5586" rx="4" ry="4" height="124.1068" stroke="none"/>
      <rect x="1075.1292" y="127.7171" clip-path="url(#clipPath2)" fill="rgb(235,235,235)" width="338.5586" height="38.9219" stroke="none"/>
    </g>
    <g font-size="15px" stroke-linecap="butt" transform="matrix(1,0,0,1,-1060,-107)" text-rendering="geometricPrecision" font-family="sans-serif" shape-rendering="geometricPrecision" stroke-miterlimit="1.45">
      <text x="1189.6123" xml:space="preserve" y="143.6404" clip-path="url(#clipPath2)" stroke="none">Program code </text>
      <text x="1141.5068" xml:space="preserve" y="161.1014" clip-path="url(#clipPath2)" stroke="none">outside of Root Component</text>
      <rect x="1075.1292" y="127.7171" clip-path="url(#clipPath2)" fill="none" width="338.5586" stroke-dasharray="6,2" rx="4" ry="4" height="124.1068"/>
    </g>
    <g fill="rgb(255,204,0)" text-rendering="geometricPrecision" shape-rendering="geometricPrecision" transform="matrix(1,0,0,1,-1060,-107)" stroke="rgb(255,204,0)">
      <rect x="1200.4749" width="193.4375" height="50.3698" y="186.4541" clip-path="url(#clipPath2)" stroke="none"/>
    </g>
    <g text-rendering="geometricPrecision" stroke-miterlimit="1.45" shape-rendering="geometricPrecision" transform="matrix(1,0,0,1,-1060,-107)" stroke-linecap="butt">
      <rect fill="none" x="1200.4749" width="193.4375" height="50.3698" y="186.4541" clip-path="url(#clipPath2)"/>
      <text x="1207.4749" xml:space="preserve" y="208.8089" clip-path="url(#clipPath2)" font-family="sans-serif" stroke="none">`runUI` passes an input value</text>
      <text x="1221.678" xml:space="preserve" y="222.7776" clip-path="url(#clipPath2)" font-family="sans-serif" stroke="none">into top-level component</text>
    </g>
    <g fill="white" text-rendering="geometricPrecision" shape-rendering="geometricPrecision" transform="matrix(1,0,0,1,-1060,-107)" stroke="white">
      <rect x="1090.1292" width="80.3457" height="30" y="196.639" clip-path="url(#clipPath2)" stroke="none"/>
    </g>
    <g text-rendering="geometricPrecision" stroke-miterlimit="1.45" shape-rendering="geometricPrecision" transform="matrix(1,0,0,1,-1060,-107)" stroke-linecap="butt">
      <rect fill="none" x="1090.1292" width="80.3457" height="30" y="196.639" clip-path="url(#clipPath2)"/>
      <text x="1097.1292" xml:space="preserve" y="215.7933" clip-path="url(#clipPath2)" font-family="sans-serif" stroke="none">Entry point</text>
      <path fill="none" d="M1297.1936 236.8239 L1297.1936 280.5361" clip-path="url(#clipPath2)"/>
      <path d="M1297.1936 288.5361 L1302.1936 276.5361 L1297.1936 279.5361 L1292.1936 276.5361 Z" clip-path="url(#clipPath2)" stroke="none"/>
      <path fill="none" d="M1170.4749 211.639 L1192.4749 211.639" clip-path="url(#clipPath2)"/>
      <path d="M1200.4749 211.639 L1188.4749 206.639 L1191.4749 211.639 L1188.4749 216.639 Z" clip-path="url(#clipPath2)" stroke="none"/>
    </g>
    <g fill="rgb(245,245,245)" text-rendering="geometricPrecision" shape-rendering="geometricPrecision" transform="matrix(1,0,0,1,-1060,-107)" stroke="rgb(245,245,245)">
      <rect x="1968.0963" y="658.0354" clip-path="url(#clipPath2)" width="290.4245" rx="4" ry="4" height="275.5918" stroke="none"/>
      <rect x="1968.0963" y="658.0354" clip-path="url(#clipPath2)" fill="rgb(235,235,235)" width="290.4245" height="38.9219" stroke="none"/>
    </g>
    <g font-size="15px" stroke-linecap="butt" transform="matrix(1,0,0,1,-1060,-107)" text-rendering="geometricPrecision" font-family="sans-serif" shape-rendering="geometricPrecision" stroke-miterlimit="1.45">
      <text x="2018.7639" xml:space="preserve" y="673.9587" clip-path="url(#clipPath2)" stroke="none">What does the HalogenM</text>
      <text x="2050.1592" xml:space="preserve" y="691.4196" clip-path="url(#clipPath2)" stroke="none">computation do?</text>
      <rect x="1968.0963" y="658.0354" clip-path="url(#clipPath2)" fill="none" width="290.4245" stroke-dasharray="6,2" rx="4" ry="4" height="275.5918"/>
    </g>
    <g fill="rgb(255,204,0)" text-rendering="geometricPrecision" shape-rendering="geometricPrecision" transform="matrix(1,0,0,1,-1060,-107)" stroke="rgb(255,204,0)">
      <rect x="2055.2721" width="101" height="30" y="767.5988" clip-path="url(#clipPath2)" stroke="none"/>
    </g>
    <g text-rendering="geometricPrecision" stroke-miterlimit="1.45" shape-rendering="geometricPrecision" transform="matrix(1,0,0,1,-1060,-107)" stroke-linecap="butt">
      <rect fill="none" x="2055.2721" width="101" height="30" y="767.5988" clip-path="url(#clipPath2)"/>
      <text x="2062.272" xml:space="preserve" y="786.7531" clip-path="url(#clipPath2)" font-family="sans-serif" stroke="none">raise message</text>
    </g>
    <g fill="rgb(255,204,0)" text-rendering="geometricPrecision" shape-rendering="geometricPrecision" transform="matrix(1,0,0,1,-1060,-107)" stroke="rgb(255,204,0)">
      <rect x="2020.2272" width="171.0898" height="30" y="874.2106" clip-path="url(#clipPath2)" stroke="none"/>
    </g>
    <g text-rendering="geometricPrecision" stroke-miterlimit="1.45" shape-rendering="geometricPrecision" transform="matrix(1,0,0,1,-1060,-107)" stroke-linecap="butt">
      <rect fill="none" x="2020.2272" width="171.0898" height="30" y="874.2106" clip-path="url(#clipPath2)"/>
      <text x="2027.2272" xml:space="preserve" y="893.3649" clip-path="url(#clipPath2)" font-family="sans-serif" stroke="none">modifies component state</text>
    </g>
    <g fill="rgb(255,204,0)" text-rendering="geometricPrecision" shape-rendering="geometricPrecision" transform="matrix(1,0,0,1,-1060,-107)" stroke="rgb(255,204,0)">
      <rect x="2035.8688" width="139.8066" height="30" y="717.2162" clip-path="url(#clipPath2)" stroke="none"/>
    </g>
    <g text-rendering="geometricPrecision" stroke-miterlimit="1.45" shape-rendering="geometricPrecision" transform="matrix(1,0,0,1,-1060,-107)" stroke-linecap="butt">
      <rect fill="none" x="2035.8688" width="139.8066" height="30" y="717.2162" clip-path="url(#clipPath2)"/>
      <text x="2058.6011" xml:space="preserve" y="729.3861" clip-path="url(#clipPath2)" font-family="sans-serif" stroke="none">send a query to</text>
      <text x="2042.8688" xml:space="preserve" y="743.3549" clip-path="url(#clipPath2)" font-family="sans-serif" stroke="none">one or more children</text>
    </g>
    <g fill="rgb(255,204,0)" text-rendering="geometricPrecision" shape-rendering="geometricPrecision" transform="matrix(1,0,0,1,-1060,-107)" stroke="rgb(255,204,0)">
      <rect x="1983.0963" width="245.3516" height="30" y="821.8474" clip-path="url(#clipPath2)" stroke="none"/>
    </g>
    <g text-rendering="geometricPrecision" stroke-miterlimit="1.45" shape-rendering="geometricPrecision" transform="matrix(1,0,0,1,-1060,-107)" stroke-linecap="butt">
      <rect fill="none" x="1983.0963" width="245.3516" height="30" y="821.8474" clip-path="url(#clipPath2)"/>
      <text x="1990.0963" xml:space="preserve" y="841.0017" clip-path="url(#clipPath2)" font-family="sans-serif" stroke="none">run some other Aff/Effect computation</text>
    </g>
    <g fill="rgb(255,204,0)" text-rendering="geometricPrecision" shape-rendering="geometricPrecision" transform="matrix(1,0,0,1,-1060,-107)" stroke="rgb(255,204,0)">
      <rect x="2023.9368" width="180.752" height="50.593" y="540.7035" clip-path="url(#clipPath2)" stroke="none"/>
    </g>
    <g text-rendering="geometricPrecision" stroke-miterlimit="1.45" shape-rendering="geometricPrecision" transform="matrix(1,0,0,1,-1060,-107)" stroke-linecap="butt">
      <rect fill="none" x="2023.9368" width="180.752" height="50.593" y="540.7035" clip-path="url(#clipPath2)"/>
      <text x="2053.9846" xml:space="preserve" y="556.1855" clip-path="url(#clipPath2)" font-family="sans-serif" stroke="none">Action gets mapped</text>
      <text x="2030.9368" xml:space="preserve" y="570.1543" clip-path="url(#clipPath2)" font-family="sans-serif" stroke="none">to a HalogenM computation</text>
      <text x="2058.1653" xml:space="preserve" y="584.123" clip-path="url(#clipPath2)" font-family="sans-serif" stroke="none">via `handleAction`</text>
    </g>
    <g fill="rgb(255,204,0)" text-rendering="geometricPrecision" shape-rendering="geometricPrecision" transform="matrix(1,0,0,1,-1060,-107)" stroke="rgb(255,204,0)">
      <path d="M2318.0164 358.3575 L2400.4666 316.3979 L2482.917 358.3575 L2400.4666 400.317 Z" fill-rule="evenodd" clip-path="url(#clipPath2)" stroke="none"/>
    </g>
    <g text-rendering="geometricPrecision" stroke-miterlimit="1.45" shape-rendering="geometricPrecision" transform="matrix(1,0,0,1,-1060,-107)" stroke-linecap="butt">
      <path fill="none" d="M2318.0164 358.3575 L2400.4666 316.3979 L2482.917 358.3575 L2400.4666 400.317 Z" fill-rule="evenodd" clip-path="url(#clipPath2)"/>
      <text x="2345.0427" xml:space="preserve" y="362.5118" clip-path="url(#clipPath2)" font-family="sans-serif" stroke="none">Maybe ActionType</text>
    </g>
    <g fill="rgb(255,204,0)" text-rendering="geometricPrecision" shape-rendering="geometricPrecision" transform="matrix(1,0,0,1,-1060,-107)" stroke="rgb(255,204,0)">
      <rect x="2336.2791" width="128.375" height="30" y="221.3547" clip-path="url(#clipPath2)" stroke="none"/>
    </g>
    <g text-rendering="geometricPrecision" stroke-miterlimit="1.45" shape-rendering="geometricPrecision" transform="matrix(1,0,0,1,-1060,-107)" stroke-linecap="butt">
      <rect fill="none" x="2336.2791" width="128.375" height="30" y="221.3547" clip-path="url(#clipPath2)"/>
      <text x="2343.2791" xml:space="preserve" y="240.509" clip-path="url(#clipPath2)" font-family="sans-serif" stroke="none">which gets ignored</text>
    </g>
    <g fill="rgb(255,204,0)" text-rendering="geometricPrecision" shape-rendering="geometricPrecision" transform="matrix(1,0,0,1,-1060,-107)" stroke="rgb(255,204,0)">
      <rect x="2255.0777" width="180.752" height="50.593" y="588.7518" clip-path="url(#clipPath2)" stroke="none"/>
    </g>
    <g text-rendering="geometricPrecision" stroke-miterlimit="1.45" shape-rendering="geometricPrecision" transform="matrix(1,0,0,1,-1060,-107)" stroke-linecap="butt">
      <rect fill="none" x="2255.0777" width="180.752" height="50.593" y="588.7518" clip-path="url(#clipPath2)"/>
      <text x="2283.8804" xml:space="preserve" y="604.2339" clip-path="url(#clipPath2)" font-family="sans-serif" stroke="none">Query gets mapped </text>
      <text x="2262.0776" xml:space="preserve" y="618.2026" clip-path="url(#clipPath2)" font-family="sans-serif" stroke="none">to a HalogenM computation</text>
      <text x="2269.0415" xml:space="preserve" y="632.1714" clip-path="url(#clipPath2)" font-family="sans-serif" stroke="none">via child's `handleQuery`</text>
    </g>
    <g fill="rgb(255,204,0)" text-rendering="geometricPrecision" shape-rendering="geometricPrecision" transform="matrix(1,0,0,1,-1060,-107)" stroke="rgb(255,204,0)">
      <path d="M1722.5493 412.4106 L1800.8634 367.2823 L1879.1775 412.4106 L1800.8634 457.5389 Z" fill-rule="evenodd" clip-path="url(#clipPath2)" stroke="none"/>
    </g>
    <g text-rendering="geometricPrecision" stroke-miterlimit="1.45" shape-rendering="geometricPrecision" transform="matrix(1,0,0,1,-1060,-107)" stroke-linecap="butt">
      <path fill="none" d="M1722.5493 412.4106 L1800.8634 367.2823 L1879.1775 412.4106 L1800.8634 457.5389 Z" fill-rule="evenodd" clip-path="url(#clipPath2)"/>
      <text x="1747.9977" xml:space="preserve" y="409.5805" clip-path="url(#clipPath2)" font-family="sans-serif" stroke="none">Does component </text>
      <text x="1756.8453" xml:space="preserve" y="423.5493" clip-path="url(#clipPath2)" font-family="sans-serif" stroke="none">have children?</text>
    </g>
    <g fill="rgb(255,204,0)" text-rendering="geometricPrecision" shape-rendering="geometricPrecision" transform="matrix(1,0,0,1,-1060,-107)" stroke="rgb(255,204,0)">
      <rect x="1522.8586" width="104.252" height="50.593" y="387.1141" clip-path="url(#clipPath2)" stroke="none"/>
    </g>
    <g text-rendering="geometricPrecision" stroke-miterlimit="1.45" shape-rendering="geometricPrecision" transform="matrix(1,0,0,1,-1060,-107)" stroke-linecap="butt">
      <rect fill="none" x="1522.8586" width="104.252" height="50.593" y="387.1141" clip-path="url(#clipPath2)"/>
      <text x="1529.8586" xml:space="preserve" y="402.5961" clip-path="url(#clipPath2)" font-family="sans-serif" stroke="none">Parent passes </text>
      <text x="1529.8586" xml:space="preserve" y="416.5649" clip-path="url(#clipPath2)" font-family="sans-serif" stroke="none">an Input value </text>
      <text x="1529.8586" xml:space="preserve" y="430.5336" clip-path="url(#clipPath2)" font-family="sans-serif" stroke="none">into each child</text>
    </g>
    <g fill="rgb(255,204,0)" text-rendering="geometricPrecision" shape-rendering="geometricPrecision" transform="matrix(1,0,0,1,-1060,-107)" stroke="rgb(255,204,0)">
      <rect x="2564.8809" width="132.4941" height="30" y="773.6028" clip-path="url(#clipPath2)" stroke="none"/>
    </g>
    <g text-rendering="geometricPrecision" stroke-miterlimit="1.45" shape-rendering="geometricPrecision" transform="matrix(1,0,0,1,-1060,-107)" stroke-linecap="butt">
      <rect fill="none" x="2564.8809" width="132.4941" height="30" y="773.6028" clip-path="url(#clipPath2)"/>
      <text x="2571.8809" xml:space="preserve" y="792.7571" clip-path="url(#clipPath2)" font-family="sans-serif" stroke="none">Nothing else occurs</text>
      <path fill="none" d="M2113.7058 933.6218 L2114.2407 1119.1128" stroke-width="3" clip-path="url(#clipPath2)" stroke="rgb(153,204,255)"/>
      <path fill="rgb(153,204,255)" d="M2114.2695 1129.1128 L2120.4763 1114.0948 L2114.2371 1117.8628 L2107.9763 1114.1309 Z" stroke-width="3" clip-path="url(#clipPath2)" stroke="none"/>
      <text x="2125.5215" xml:space="preserve" y="965.4822" clip-path="url(#clipPath2)" font-family="sans-serif" stroke="none">and then</text>
      <path fill="none" d="M1968.1088 795.8313 L1903.7233 795.8313" stroke-width="5" clip-path="url(#clipPath2)" stroke="rgb(51,153,102)"/>
      <path fill="rgb(51,153,102)" d="M1891.7233 795.8313 L1909.7233 803.3313 L1905.2233 795.8313 L1909.7233 788.3313 Z" stroke-width="5" clip-path="url(#clipPath2)" stroke="none"/>
      <text x="1886.1427" xml:space="preserve" y="769.9856" clip-path="url(#clipPath2)" font-family="sans-serif" stroke="none">and then</text>
    </g>
    <g stroke-linecap="round" transform="matrix(1,0,0,1,-1060,-107)" stroke-dashoffset="2" text-rendering="geometricPrecision" shape-rendering="geometricPrecision" stroke-dasharray="0,8" stroke-width="2" stroke-miterlimit="1.45">
      <path fill="none" d="M2156.272 782.5988 L2486.7212 782.5988 L2486.7212 567.7207" clip-path="url(#clipPath2)"/>
      <path d="M2486.7212 558.7207 L2481.0962 572.2207 L2486.7212 568.8457 L2492.3462 572.2207 Z" clip-path="url(#clipPath2)" stroke="none"/>
    </g>
    <g text-rendering="geometricPrecision" stroke-miterlimit="1.45" shape-rendering="geometricPrecision" transform="matrix(1,0,0,1,-1060,-107)" stroke-linecap="butt">
      <path fill="none" d="M2191.3169 889.2106 L2357.4819 889.2106" clip-path="url(#clipPath2)"/>
      <path d="M2365.4819 889.2106 L2353.4819 884.2106 L2356.4819 889.2106 L2353.4819 894.2106 Z" clip-path="url(#clipPath2)" stroke="none"/>
      <text x="2267.8018" xml:space="preserve" y="878.8243" clip-path="url(#clipPath2)" font-family="sans-serif" stroke="none">which causes</text>
      <path fill="none" d="M1920.8177 566 L2015.9368 566" clip-path="url(#clipPath2)"/>
      <path d="M2023.9368 566 L2011.9368 561 L2014.9368 566 L2011.9368 571 Z" clip-path="url(#clipPath2)" stroke="none"/>
      <text x="1914.879" xml:space="preserve" y="535.3722" clip-path="url(#clipPath2)" font-family="sans-serif" stroke="none">Just (ActionValue)</text>
      <path fill="none" d="M1718.4213 1010.2398 L1623.0413 1010.2398 L1623.0413 1295.4142 L3251.5322 1295.4142 L3251.5322 739.9145 L2877.5769 739.9145 L2877.5769 122.0964 L2114.3127 122.0964 L2114.3127 528.7035" stroke-width="5" clip-path="url(#clipPath2)" stroke="rgb(51,153,102)"/>
      <path fill="rgb(51,153,102)" d="M2114.3127 540.7035 L2121.8127 522.7035 L2114.3127 527.2035 L2106.8127 522.7035 Z" stroke-width="5" clip-path="url(#clipPath2)" stroke="none"/>
      <text x="1621.9305" xml:space="preserve" y="982.6186" clip-path="url(#clipPath2)" font-family="sans-serif" stroke="none">Just ActionValue</text>
      <path fill="none" d="M2627.6602 1212.7782 L2627.6602 1247.7053 L3206.259 1247.7053 L3206.259 780.6714 L2831.4573 780.6714 L2831.4573 160.5268 L2201.4575 160.5268 L2201.4575 442.5213 L2114.3127 442.5213 L2114.3127 530.7035" stroke-width="3" clip-path="url(#clipPath2)" stroke="rgb(153,204,255)"/>
      <path fill="rgb(153,204,255)" d="M2114.3127 540.7035 L2120.5627 525.7035 L2114.3127 529.4535 L2108.0627 525.7035 Z" stroke-width="3" clip-path="url(#clipPath2)" stroke="none"/>
      <text x="2664.2034" xml:space="preserve" y="1220.6737" clip-path="url(#clipPath2)" font-family="sans-serif" stroke="none">Just (ActionValue)</text>
      <path fill="none" d="M2114.2021 591.2965 L2113.9456 650.06" clip-path="url(#clipPath2)"/>
      <path d="M2113.9104 658.0599 L2118.9631 646.082 L2113.95 649.06 L2108.9631 646.0381 Z" clip-path="url(#clipPath2)" stroke="none"/>
      <path fill="none" d="M2595.3276 362.5856 L2487.5793 360.2477" clip-path="url(#clipPath2)"/>
      <path d="M2479.5813 360.0741 L2491.47 365.3333 L2488.5791 360.2694 L2491.687 355.3356 Z" clip-path="url(#clipPath2)" stroke="none"/>
      <text x="2499.1277" xml:space="preserve" y="336.1372" clip-path="url(#clipPath2)" font-family="sans-serif" stroke="none">which gets mapped to </text>
      <path fill="none" d="M2318.0305 358.3575 L2277.0083 358.3575 L2277.0083 489.6624 L2114.3127 489.6624 L2114.3127 532.7035" clip-path="url(#clipPath2)"/>
      <path d="M2114.3127 540.7035 L2119.3127 528.7035 L2114.3127 531.7035 L2109.3127 528.7035 Z" clip-path="url(#clipPath2)" stroke="none"/>
      <text x="2242.2859" xml:space="preserve" y="323.7577" clip-path="url(#clipPath2)" font-family="sans-serif" stroke="none">Just (ActionValue)</text>
      <path fill="none" d="M2400.4666 316.3893 L2400.4666 259.3547" clip-path="url(#clipPath2)"/>
      <path d="M2400.4666 251.3547 L2395.4666 263.3547 L2400.4666 260.3547 L2405.4666 263.3547 Z" clip-path="url(#clipPath2)" stroke="none"/>
      <text x="2406.8738" xml:space="preserve" y="288.0306" clip-path="url(#clipPath2)" font-family="sans-serif" stroke="none">Nothing</text>
      <path fill="none" d="M2175.6753 732.2162 L2345.4536 732.2162 L2345.4536 647.3448" clip-path="url(#clipPath2)"/>
      <path d="M2345.4536 639.3448 L2340.4536 651.3448 L2345.4536 648.3448 L2350.4536 651.3448 Z" clip-path="url(#clipPath2)" stroke="none"/>
      <path fill="none" stroke-dasharray="12,4" d="M2938.5232 614.0483 L2444.8296 614.0483" stroke-width="2" clip-path="url(#clipPath2)"/>
      <path stroke-dasharray="12,4" d="M2435.8296 614.0483 L2449.3296 619.6733 L2445.9546 614.0483 L2449.3296 608.4233 Z" stroke-width="2" clip-path="url(#clipPath2)" stroke="none"/>
      <path fill="none" d="M2255.0776 613.8342 L2114.3127 613.5005 L2114.1113 650.0596" clip-path="url(#clipPath2)"/>
      <path d="M2114.0674 658.0594 L2119.1333 646.0871 L2114.1169 649.0596 L2109.1333 646.0322 Z" clip-path="url(#clipPath2)" stroke="none"/>
      <path fill="none" d="M1800.8639 318.5361 L1800.8639 359.261" clip-path="url(#clipPath2)"/>
      <path d="M1800.8639 367.261 L1805.8639 355.261 L1800.8639 358.261 L1795.8639 355.261 Z" clip-path="url(#clipPath2)" stroke="none"/>
      <path fill="none" d="M1800.8639 457.52 L1800.8639 498.2777" clip-path="url(#clipPath2)"/>
      <path d="M1800.8639 506.2777 L1805.8639 494.2777 L1800.8639 497.2777 L1795.8639 494.2777 Z" clip-path="url(#clipPath2)" stroke="none"/>
      <text x="1822.4867" xml:space="preserve" y="477.6156" clip-path="url(#clipPath2)" font-family="sans-serif" stroke="none">No</text>
      <path fill="none" d="M1722.5286 412.4106 L1635.1106 412.4106" clip-path="url(#clipPath2)"/>
      <path d="M1627.1106 412.4106 L1639.1106 417.4106 L1636.1106 412.4106 L1639.1106 407.4106 Z" clip-path="url(#clipPath2)" stroke="none"/>
      <text x="1664.3478" xml:space="preserve" y="446.5649" clip-path="url(#clipPath2)" font-family="sans-serif" stroke="none">Yes</text>
      <path fill="none" d="M1574.9846 437.7071 L1574.9846 566 L1672.8931 566" clip-path="url(#clipPath2)"/>
      <path d="M1680.8931 566 L1668.8931 561 L1671.8931 566 L1668.8931 571 Z" clip-path="url(#clipPath2)" stroke="none"/>
      <text x="1584.9351" xml:space="preserve" y="496.6008" clip-path="url(#clipPath2)" font-family="sans-serif" stroke="none">after all children </text>
      <text x="1597.0024" xml:space="preserve" y="510.5695" clip-path="url(#clipPath2)" font-family="sans-serif" stroke="none">are rendered</text>
    </g>
    <g stroke-linecap="round" transform="matrix(1,0,0,1,-1060,-107)" stroke-dashoffset="2" text-rendering="geometricPrecision" shape-rendering="geometricPrecision" stroke-dasharray="0,8" stroke-width="2" stroke-miterlimit="1.45">
      <path fill="none" d="M1522.8586 412.4106 L1401.4457 412.4106 L1317.7812 325.0366" clip-path="url(#clipPath2)"/>
      <path d="M1311.5568 318.5361 L1316.8307 332.1771 L1318.5593 325.8492 L1324.9563 324.3965 Z" clip-path="url(#clipPath2)" stroke="none"/>
    </g>
    <g text-rendering="geometricPrecision" stroke-miterlimit="1.45" shape-rendering="geometricPrecision" transform="matrix(1,0,0,1,-1060,-107)" stroke-linecap="butt">
      <path fill="none" d="M2631.1279 846.0298 L2631.1279 811.6028" clip-path="url(#clipPath2)"/>
      <path d="M2631.1279 803.6028 L2626.1279 815.6028 L2631.1279 812.6028 L2636.1279 815.6028 Z" clip-path="url(#clipPath2)" stroke="none"/>
      <text x="2652.9688" xml:space="preserve" y="828.9575" clip-path="url(#clipPath2)" font-family="sans-serif" stroke="none">No</text>
    </g>
  </g>
</svg>
