<?xml version="1.0" encoding="UTF-8"?><svg xmlns="http://www.w3.org/2000/svg" xmlns:xlink="http://www.w3.org/1999/xlink" fill-opacity="1" color-rendering="auto" color-interpolation="auto" text-rendering="auto" stroke="black" stroke-linecap="square" width="1246" stroke-miterlimit="10" shape-rendering="auto" stroke-opacity="1" fill="black" stroke-dasharray="none" font-weight="normal" stroke-width="1" height="841" font-family="'Dialog'" font-style="normal" stroke-linejoin="miter" font-size="12px" stroke-dashoffset="0" image-rendering="auto">
  <!--Generated by ySVG 2.5-->
  <defs id="genericDefs"/>
  <g>
    <defs id="defs1">
      <clipPath clipPathUnits="userSpaceOnUse" id="clipPath1">
        <path d="M0 0 L1246 0 L1246 841 L0 841 L0 0 Z"/>
      </clipPath>
      <clipPath clipPathUnits="userSpaceOnUse" id="clipPath2">
        <path d="M1712 86 L2958 86 L2958 927 L1712 927 L1712 86 Z"/>
      </clipPath>
    </defs>
    <g fill="white" text-rendering="geometricPrecision" shape-rendering="geometricPrecision" transform="translate(-1712,-86)" stroke="white">
      <rect x="1712" width="1246" height="841" y="86" clip-path="url(#clipPath2)" stroke="none"/>
    </g>
    <g fill="rgb(245,245,245)" text-rendering="geometricPrecision" shape-rendering="geometricPrecision" transform="matrix(1,0,0,1,-1712,-86)" stroke="rgb(245,245,245)">
      <rect x="1727.5816" y="506.4075" clip-path="url(#clipPath2)" width="1215.1007" rx="4" ry="4" height="405.5257" stroke="none"/>
      <rect x="1727.5816" y="506.4075" clip-path="url(#clipPath2)" fill="rgb(235,235,235)" width="1215.1007" height="38.9219" stroke="none"/>
    </g>
    <g font-size="15px" stroke-linecap="butt" transform="matrix(1,0,0,1,-1712,-86)" text-rendering="geometricPrecision" font-family="sans-serif" shape-rendering="geometricPrecision" stroke-miterlimit="1.45">
      <text x="2301.261" xml:space="preserve" y="522.3308" clip-path="url(#clipPath2)" stroke="none">Queries: </text>
      <text x="2217.5598" xml:space="preserve" y="539.7917" clip-path="url(#clipPath2)" stroke="none">Parent -&gt; Child communication</text>
      <rect x="1727.5816" y="506.4075" clip-path="url(#clipPath2)" fill="none" width="1215.1007" stroke-dasharray="6,2" rx="4" ry="4" height="405.5257"/>
    </g>
    <g fill="rgb(225,225,225)" text-rendering="geometricPrecision" shape-rendering="geometricPrecision" transform="matrix(1,0,0,1,-1712,-86)" stroke="rgb(225,225,225)">
      <rect x="1743.2803" y="560.3293" clip-path="url(#clipPath2)" width="572.0933" rx="4" ry="4" height="336.6038" stroke="none"/>
      <rect x="1743.2803" y="560.3293" clip-path="url(#clipPath2)" fill="rgb(235,235,235)" width="572.0933" height="38.9219" stroke="none"/>
    </g>
    <g font-size="15px" stroke-linecap="butt" transform="matrix(1,0,0,1,-1712,-86)" text-rendering="geometricPrecision" font-family="sans-serif" shape-rendering="geometricPrecision" stroke-miterlimit="1.45">
      <text x="1993.2551" xml:space="preserve" y="576.2527" clip-path="url(#clipPath2)" stroke="none">Question:</text>
      <text x="1937.7998" xml:space="preserve" y="593.7136" clip-path="url(#clipPath2)" stroke="none">Getting info from a child</text>
      <rect x="1743.2803" y="560.3293" clip-path="url(#clipPath2)" fill="none" width="572.0933" stroke-dasharray="6,2" rx="4" ry="4" height="336.6038"/>
    </g>
    <g fill="rgb(255,204,0)" text-rendering="geometricPrecision" shape-rendering="geometricPrecision" transform="matrix(1,0,0,1,-1712,-86)" stroke="rgb(255,204,0)">
      <rect x="1758.2803" width="53.2168" height="30" y="764.7993" clip-path="url(#clipPath2)" stroke="none"/>
    </g>
    <g text-rendering="geometricPrecision" stroke-miterlimit="1.45" shape-rendering="geometricPrecision" transform="matrix(1,0,0,1,-1712,-86)" stroke-linecap="butt">
      <rect fill="none" x="1758.2803" width="53.2168" height="30" y="764.7993" clip-path="url(#clipPath2)"/>
      <text x="1765.2803" xml:space="preserve" y="783.9536" clip-path="url(#clipPath2)" font-family="sans-serif" stroke="none">Parent</text>
    </g>
    <g fill="rgb(255,204,0)" text-rendering="geometricPrecision" shape-rendering="geometricPrecision" transform="matrix(1,0,0,1,-1712,-86)" stroke="rgb(255,204,0)">
      <rect x="2101.3281" width="44.2695" height="30" y="667.5193" clip-path="url(#clipPath2)" stroke="none"/>
    </g>
    <g text-rendering="geometricPrecision" stroke-miterlimit="1.45" shape-rendering="geometricPrecision" transform="matrix(1,0,0,1,-1712,-86)" stroke-linecap="butt">
      <rect fill="none" x="2101.3281" width="44.2695" height="30" y="667.5193" clip-path="url(#clipPath2)"/>
      <text x="2108.3281" xml:space="preserve" y="686.6736" clip-path="url(#clipPath2)" font-family="sans-serif" stroke="none">Child</text>
    </g>
    <g fill="rgb(255,204,0)" text-rendering="geometricPrecision" shape-rendering="geometricPrecision" transform="matrix(1,0,0,1,-1712,-86)" stroke="rgb(255,204,0)">
      <path d="M2033.3018 777.5893 L2123.4624 748.5093 L2213.623 777.5893 L2123.4624 806.6693 Z" fill-rule="evenodd" clip-path="url(#clipPath2)" stroke="none"/>
    </g>
    <g text-rendering="geometricPrecision" stroke-miterlimit="1.45" shape-rendering="geometricPrecision" transform="matrix(1,0,0,1,-1712,-86)" stroke-linecap="butt">
      <path fill="none" d="M2033.3018 777.5893 L2123.4624 748.5093 L2213.623 777.5893 L2123.4624 806.6693 Z" fill-rule="evenodd" clip-path="url(#clipPath2)"/>
      <text x="2067.8223" xml:space="preserve" y="781.7447" clip-path="url(#clipPath2)" font-family="sans-serif" stroke="none">Maybe ReplyValue</text>
    </g>
    <g fill="rgb(255,204,0)" text-rendering="geometricPrecision" shape-rendering="geometricPrecision" transform="matrix(1,0,0,1,-1712,-86)" stroke="rgb(255,204,0)">
      <rect x="1881.5158" width="107.5742" height="30" y="764.7993" clip-path="url(#clipPath2)" stroke="none"/>
    </g>
    <g text-rendering="geometricPrecision" stroke-miterlimit="1.45" shape-rendering="geometricPrecision" transform="matrix(1,0,0,1,-1712,-86)" stroke-linecap="butt">
      <rect fill="none" x="1881.5158" width="107.5742" height="30" y="764.7993" clip-path="url(#clipPath2)"/>
      <text x="1888.5157" xml:space="preserve" y="783.9536" clip-path="url(#clipPath2)" font-family="sans-serif" stroke="none">Just ReplyValue</text>
    </g>
    <g fill="rgb(255,204,0)" text-rendering="geometricPrecision" shape-rendering="geometricPrecision" transform="matrix(1,0,0,1,-1712,-86)" stroke="rgb(255,204,0)">
      <rect x="1904.7101" width="61.1855" height="30" y="841.3104" clip-path="url(#clipPath2)" stroke="none"/>
    </g>
    <g text-rendering="geometricPrecision" stroke-miterlimit="1.45" shape-rendering="geometricPrecision" transform="matrix(1,0,0,1,-1712,-86)" stroke-linecap="butt">
      <rect fill="none" x="1904.7101" width="61.1855" height="30" y="841.3104" clip-path="url(#clipPath2)"/>
      <text x="1911.7101" xml:space="preserve" y="860.4647" clip-path="url(#clipPath2)" font-family="sans-serif" stroke="none">Nothing</text>
      <path fill="none" d="M1784.8887 764.7993 L1784.8887 682.5193 L2093.3281 682.5193" clip-path="url(#clipPath2)"/>
      <path d="M2101.3281 682.5193 L2089.3281 677.5193 L2092.3281 682.5193 L2089.3281 687.5193 Z" clip-path="url(#clipPath2)" stroke="none"/>
      <text x="1881.6427" xml:space="preserve" y="634.3843" clip-path="url(#clipPath2)" font-family="sans-serif" stroke="none">Question: </text>
      <text x="1799.9777" xml:space="preserve" y="648.3531" clip-path="url(#clipPath2)" font-family="sans-serif" stroke="none">parent "queries" child for information</text>
      <text x="1819.7355" xml:space="preserve" y="662.3218" clip-path="url(#clipPath2)" font-family="sans-serif" stroke="none">and includes a "reply" function</text>
      <path fill="none" d="M2123.4629 697.5193 L2123.4629 740.5411" clip-path="url(#clipPath2)"/>
      <path d="M2123.4629 748.5411 L2128.4629 736.5411 L2123.4629 739.5411 L2118.4629 736.5411 Z" clip-path="url(#clipPath2)" stroke="none"/>
      <text x="2209.5027" xml:space="preserve" y="713.2004" clip-path="url(#clipPath2)" font-family="sans-serif" stroke="none">Answer:</text>
      <text x="2171.4314" xml:space="preserve" y="727.1691" clip-path="url(#clipPath2)" font-family="sans-serif" stroke="none">child passes answer </text>
      <text x="2173.1013" xml:space="preserve" y="741.1379" clip-path="url(#clipPath2)" font-family="sans-serif" stroke="none">into "reply" function</text>
      <path fill="none" d="M2036.5032 778.6113 L1997.0895 779.074" clip-path="url(#clipPath2)"/>
      <path d="M1989.0901 779.1679 L2001.1479 784.0267 L1998.0895 779.0623 L2001.0305 774.0273 Z" clip-path="url(#clipPath2)" stroke="none"/>
      <text x="1930.2753" xml:space="preserve" y="753.1945" clip-path="url(#clipPath2)" font-family="sans-serif" stroke="none">request was successful</text>
      <path fill="none" d="M1881.5157 779.7993 L1819.4971 779.7993" clip-path="url(#clipPath2)"/>
      <path d="M1811.4971 779.7993 L1823.4971 784.7993 L1820.4971 779.7993 L1823.4971 774.7993 Z" clip-path="url(#clipPath2)" stroke="none"/>
      <path fill="none" d="M2123.4629 806.6876 L2123.4629 856.3104 L1973.8956 856.3104" clip-path="url(#clipPath2)"/>
      <path d="M1965.8956 856.3104 L1977.8956 861.3104 L1974.8956 856.3104 L1977.8956 851.3104 Z" clip-path="url(#clipPath2)" stroke="none"/>
      <text x="1931.8505" xml:space="preserve" y="828.9086" clip-path="url(#clipPath2)" font-family="sans-serif" stroke="none">request was unsuccessful</text>
      <path fill="none" d="M1904.7101 856.3104 L1849.5287 856.3104 L1849.5287 779.7993 L1819.4971 779.7993" clip-path="url(#clipPath2)"/>
      <path d="M1811.4971 779.7993 L1823.4971 784.7993 L1820.4971 779.7993 L1823.4971 774.7993 Z" clip-path="url(#clipPath2)" stroke="none"/>
    </g>
    <g fill="rgb(225,225,225)" text-rendering="geometricPrecision" shape-rendering="geometricPrecision" transform="matrix(1,0,0,1,-1712,-86)" stroke="rgb(225,225,225)">
      <rect x="2335.579" y="560.3293" clip-path="url(#clipPath2)" width="592.1033" rx="4" ry="4" height="336.6038" stroke="none"/>
      <rect x="2335.579" y="560.3293" clip-path="url(#clipPath2)" fill="rgb(235,235,235)" width="592.1033" height="38.9219" stroke="none"/>
    </g>
    <g font-size="15px" stroke-linecap="butt" transform="matrix(1,0,0,1,-1712,-86)" text-rendering="geometricPrecision" font-family="sans-serif" shape-rendering="geometricPrecision" stroke-miterlimit="1.45">
      <text x="2590.5564" xml:space="preserve" y="576.2527" clip-path="url(#clipPath2)" stroke="none">Command:</text>
      <text x="2522.7415" xml:space="preserve" y="593.7136" clip-path="url(#clipPath2)" stroke="none">Telling chlid to do something</text>
      <rect x="2335.579" y="560.3293" clip-path="url(#clipPath2)" fill="none" width="592.1033" stroke-dasharray="6,2" rx="4" ry="4" height="336.6038"/>
    </g>
    <g fill="rgb(255,204,0)" text-rendering="geometricPrecision" shape-rendering="geometricPrecision" transform="matrix(1,0,0,1,-1712,-86)" stroke="rgb(255,204,0)">
      <rect x="2350.579" width="53.2168" height="30" y="764.7993" clip-path="url(#clipPath2)" stroke="none"/>
    </g>
    <g text-rendering="geometricPrecision" stroke-miterlimit="1.45" shape-rendering="geometricPrecision" transform="matrix(1,0,0,1,-1712,-86)" stroke-linecap="butt">
      <rect fill="none" x="2350.579" width="53.2168" height="30" y="764.7993" clip-path="url(#clipPath2)"/>
      <text x="2357.5791" xml:space="preserve" y="783.9536" clip-path="url(#clipPath2)" font-family="sans-serif" stroke="none">Parent</text>
    </g>
    <g fill="rgb(255,204,0)" text-rendering="geometricPrecision" shape-rendering="geometricPrecision" transform="matrix(1,0,0,1,-1712,-86)" stroke="rgb(255,204,0)">
      <rect x="2693.6269" width="44.2695" height="30" y="667.5193" clip-path="url(#clipPath2)" stroke="none"/>
    </g>
    <g text-rendering="geometricPrecision" stroke-miterlimit="1.45" shape-rendering="geometricPrecision" transform="matrix(1,0,0,1,-1712,-86)" stroke-linecap="butt">
      <rect fill="none" x="2693.6269" width="44.2695" height="30" y="667.5193" clip-path="url(#clipPath2)"/>
      <text x="2700.627" xml:space="preserve" y="686.6736" clip-path="url(#clipPath2)" font-family="sans-serif" stroke="none">Child</text>
    </g>
    <g fill="rgb(255,204,0)" text-rendering="geometricPrecision" shape-rendering="geometricPrecision" transform="matrix(1,0,0,1,-1712,-86)" stroke="rgb(255,204,0)">
      <path d="M2638.6453 777.5906 L2715.762 748.5107 L2792.8784 777.5906 L2715.762 806.6705 Z" fill-rule="evenodd" clip-path="url(#clipPath2)" stroke="none"/>
    </g>
    <g text-rendering="geometricPrecision" stroke-miterlimit="1.45" shape-rendering="geometricPrecision" transform="matrix(1,0,0,1,-1712,-86)" stroke-linecap="butt">
      <path fill="none" d="M2638.6453 777.5906 L2715.762 748.5107 L2792.8784 777.5906 L2715.762 806.6705 Z" fill-rule="evenodd" clip-path="url(#clipPath2)"/>
      <text x="2662.9248" xml:space="preserve" y="781.7447" clip-path="url(#clipPath2)" font-family="sans-serif" stroke="none">Maybe NextValue</text>
    </g>
    <g fill="rgb(255,204,0)" text-rendering="geometricPrecision" shape-rendering="geometricPrecision" transform="matrix(1,0,0,1,-1712,-86)" stroke="rgb(255,204,0)">
      <rect x="2476.6182" width="101.9668" height="30" y="764.7993" clip-path="url(#clipPath2)" stroke="none"/>
    </g>
    <g text-rendering="geometricPrecision" stroke-miterlimit="1.45" shape-rendering="geometricPrecision" transform="matrix(1,0,0,1,-1712,-86)" stroke-linecap="butt">
      <rect fill="none" x="2476.6182" width="101.9668" height="30" y="764.7993" clip-path="url(#clipPath2)"/>
      <text x="2483.6182" xml:space="preserve" y="783.9536" clip-path="url(#clipPath2)" font-family="sans-serif" stroke="none">Just NextValue</text>
    </g>
    <g fill="rgb(255,204,0)" text-rendering="geometricPrecision" shape-rendering="geometricPrecision" transform="matrix(1,0,0,1,-1712,-86)" stroke="rgb(255,204,0)">
      <rect x="2497.0088" width="61.1855" height="30" y="841.3104" clip-path="url(#clipPath2)" stroke="none"/>
    </g>
    <g text-rendering="geometricPrecision" stroke-miterlimit="1.45" shape-rendering="geometricPrecision" transform="matrix(1,0,0,1,-1712,-86)" stroke-linecap="butt">
      <rect fill="none" x="2497.0088" width="61.1855" height="30" y="841.3104" clip-path="url(#clipPath2)"/>
      <text x="2504.0088" xml:space="preserve" y="860.4647" clip-path="url(#clipPath2)" font-family="sans-serif" stroke="none">Nothing</text>
      <path fill="none" d="M2377.1875 764.7993 L2377.1875 682.5193 L2685.627 682.5193" clip-path="url(#clipPath2)"/>
      <path d="M2693.627 682.5193 L2681.627 677.5193 L2684.627 682.5193 L2681.627 687.5193 Z" clip-path="url(#clipPath2)" stroke="none"/>
      <text x="2484.0969" xml:space="preserve" y="620.4156" clip-path="url(#clipPath2)" font-family="sans-serif" stroke="none">Command: </text>
      <text x="2406.4338" xml:space="preserve" y="634.3843" clip-path="url(#clipPath2)" font-family="sans-serif" stroke="none">parent "queries" child for information</text>
      <text x="2422.0081" xml:space="preserve" y="648.3531" clip-path="url(#clipPath2)" font-family="sans-serif" stroke="none">and includes a "next" value that</text>
      <text x="2402.0422" xml:space="preserve" y="662.3218" clip-path="url(#clipPath2)" font-family="sans-serif" stroke="none">represents the rest of the computation</text>
      <path fill="none" d="M2715.7617 697.5193 L2715.7617 740.5411" clip-path="url(#clipPath2)"/>
      <path d="M2715.7617 748.5411 L2720.7617 736.5411 L2715.7617 739.5411 L2710.7617 736.5411 Z" clip-path="url(#clipPath2)" stroke="none"/>
      <text x="2805.0916" xml:space="preserve" y="707.216" clip-path="url(#clipPath2)" font-family="sans-serif" stroke="none">Result:</text>
      <text x="2748.241" xml:space="preserve" y="721.1848" clip-path="url(#clipPath2)" font-family="sans-serif" stroke="none">child does the action and </text>
      <text x="2750.5701" xml:space="preserve" y="735.1535" clip-path="url(#clipPath2)" font-family="sans-serif" stroke="none">then notifies parent that </text>
      <text x="2739.6951" xml:space="preserve" y="749.1223" clip-path="url(#clipPath2)" font-family="sans-serif" stroke="none">it is finished via "next" value</text>
      <path fill="none" d="M2640.9294 778.4689 L2586.5845 779.1069" clip-path="url(#clipPath2)"/>
      <path d="M2578.585 779.2008 L2590.6428 784.0596 L2587.5842 779.0952 L2590.5254 774.0602 Z" clip-path="url(#clipPath2)" stroke="none"/>
      <text x="2516.7244" xml:space="preserve" y="753.1809" clip-path="url(#clipPath2)" font-family="sans-serif" stroke="none">command was successful</text>
      <path fill="none" d="M2476.6182 779.7993 L2411.7959 779.7993" clip-path="url(#clipPath2)"/>
      <path d="M2403.7959 779.7993 L2415.7959 784.7993 L2412.7959 779.7993 L2415.7959 774.7993 Z" clip-path="url(#clipPath2)" stroke="none"/>
      <path fill="none" d="M2715.7617 806.6876 L2715.7617 856.3104 L2566.1943 856.3104" clip-path="url(#clipPath2)"/>
      <path d="M2558.1943 856.3104 L2570.1943 861.3104 L2567.1943 856.3104 L2570.1943 851.3104 Z" clip-path="url(#clipPath2)" stroke="none"/>
      <text x="2517.1414" xml:space="preserve" y="828.9086" clip-path="url(#clipPath2)" font-family="sans-serif" stroke="none">command was unsuccessful</text>
      <path fill="none" d="M2497.0088 856.3104 L2441.8274 856.3104 L2441.8274 779.7993 L2411.7959 779.7993" clip-path="url(#clipPath2)"/>
      <path d="M2403.7959 779.7993 L2415.7959 784.7993 L2412.7959 779.7993 L2415.7959 774.7993 Z" clip-path="url(#clipPath2)" stroke="none"/>
    </g>
    <g fill="rgb(245,245,245)" text-rendering="geometricPrecision" shape-rendering="geometricPrecision" transform="matrix(1,0,0,1,-1712,-86)" stroke="rgb(245,245,245)">
      <rect x="1862.552" y="101.5312" clip-path="url(#clipPath2)" width="945.1597" rx="4" ry="4" height="350.7359" stroke="none"/>
      <rect x="1862.552" y="101.5312" clip-path="url(#clipPath2)" fill="rgb(235,235,235)" width="945.1597" height="38.9219" stroke="none"/>
    </g>
    <g font-size="15px" stroke-linecap="butt" transform="matrix(1,0,0,1,-1712,-86)" text-rendering="geometricPrecision" font-family="sans-serif" shape-rendering="geometricPrecision" stroke-miterlimit="1.45">
      <text x="2295.8264" xml:space="preserve" y="117.4546" clip-path="url(#clipPath2)" stroke="none">Messages:</text>
      <text x="2216.4465" xml:space="preserve" y="134.9155" clip-path="url(#clipPath2)" stroke="none">Child -&gt; Parent Communication</text>
      <rect x="1862.552" y="101.5312" clip-path="url(#clipPath2)" fill="none" width="945.1597" stroke-dasharray="6,2" rx="4" ry="4" height="350.7359"/>
    </g>
    <g fill="rgb(225,225,225)" text-rendering="geometricPrecision" shape-rendering="geometricPrecision" transform="matrix(1,0,0,1,-1712,-86)" stroke="rgb(225,225,225)">
      <rect x="1877.552" y="155.4531" clip-path="url(#clipPath2)" width="915.1597" rx="4" ry="4" height="281.814" stroke="none"/>
      <rect x="1877.552" y="155.4531" clip-path="url(#clipPath2)" fill="rgb(235,235,235)" width="915.1597" height="38.9219" stroke="none"/>
    </g>
    <g font-size="15px" stroke-linecap="butt" transform="matrix(1,0,0,1,-1712,-86)" text-rendering="geometricPrecision" font-family="sans-serif" shape-rendering="geometricPrecision" stroke-miterlimit="1.45">
      <text x="2289.5715" xml:space="preserve" y="171.3765" clip-path="url(#clipPath2)" stroke="none">Notification:</text>
      <text x="2236.4563" xml:space="preserve" y="188.8374" clip-path="url(#clipPath2)" stroke="none">Sending info to the parent</text>
      <rect x="1877.552" y="155.4531" clip-path="url(#clipPath2)" fill="none" width="915.1597" stroke-dasharray="6,2" rx="4" ry="4" height="281.814"/>
    </g>
    <g fill="rgb(255,204,0)" text-rendering="geometricPrecision" shape-rendering="geometricPrecision" transform="matrix(1,0,0,1,-1712,-86)" stroke="rgb(255,204,0)">
      <rect x="2166.3456" width="201.0957" height="30" y="392.2672" clip-path="url(#clipPath2)" stroke="none"/>
    </g>
    <g text-rendering="geometricPrecision" stroke-miterlimit="1.45" shape-rendering="geometricPrecision" transform="matrix(1,0,0,1,-1712,-86)" stroke-linecap="butt">
      <rect fill="none" x="2166.3456" width="201.0957" height="30" y="392.2672" clip-path="url(#clipPath2)"/>
      <text x="2173.3455" xml:space="preserve" y="411.4214" clip-path="url(#clipPath2)" font-family="sans-serif" stroke="none">Parent ignores child's message</text>
    </g>
    <g fill="rgb(255,204,0)" text-rendering="geometricPrecision" shape-rendering="geometricPrecision" transform="matrix(1,0,0,1,-1712,-86)" stroke="rgb(255,204,0)">
      <rect x="2575.075" width="202.6367" height="58" y="232.375" clip-path="url(#clipPath2)" stroke="none"/>
    </g>
    <g text-rendering="geometricPrecision" stroke-miterlimit="1.45" shape-rendering="geometricPrecision" transform="matrix(1,0,0,1,-1712,-86)" stroke-linecap="butt">
      <rect fill="none" x="2575.075" width="202.6367" height="58" y="232.375" clip-path="url(#clipPath2)"/>
      <text x="2617.6414" xml:space="preserve" y="251.5605" clip-path="url(#clipPath2)" font-family="sans-serif" stroke="none">Parent handles the </text>
      <text x="2600.1013" xml:space="preserve" y="265.5293" clip-path="url(#clipPath2)" font-family="sans-serif" stroke="none">ParentActionType's value</text>
      <text x="2582.075" xml:space="preserve" y="279.498" clip-path="url(#clipPath2)" font-family="sans-serif" stroke="none">via the `handleAction` function</text>
    </g>
    <g fill="rgb(255,204,0)" text-rendering="geometricPrecision" shape-rendering="geometricPrecision" transform="matrix(1,0,0,1,-1712,-86)" stroke="rgb(255,204,0)">
      <path d="M2158.3611 261.3749 L2266.8933 209.3748 L2375.4255 261.3749 L2266.8933 313.3749 Z" fill-rule="evenodd" clip-path="url(#clipPath2)" stroke="none"/>
    </g>
    <g text-rendering="geometricPrecision" stroke-miterlimit="1.45" shape-rendering="geometricPrecision" transform="matrix(1,0,0,1,-1712,-86)" stroke-linecap="butt">
      <path fill="none" d="M2158.3611 261.3749 L2266.8933 209.3748 L2375.4255 261.3749 L2266.8933 313.3749 Z" fill-rule="evenodd" clip-path="url(#clipPath2)"/>
      <text x="2191.8611" xml:space="preserve" y="265.5293" clip-path="url(#clipPath2)" font-family="sans-serif" stroke="none">Maybe ParentActionType</text>
    </g>
    <g fill="rgb(255,204,0)" text-rendering="geometricPrecision" shape-rendering="geometricPrecision" transform="matrix(1,0,0,1,-1712,-86)" stroke="rgb(255,204,0)">
      <rect x="1892.552" width="44.2695" height="30" y="246.375" clip-path="url(#clipPath2)" stroke="none"/>
    </g>
    <g text-rendering="geometricPrecision" stroke-miterlimit="1.45" shape-rendering="geometricPrecision" transform="matrix(1,0,0,1,-1712,-86)" stroke-linecap="butt">
      <rect fill="none" x="1892.552" width="44.2695" height="30" y="246.375" clip-path="url(#clipPath2)"/>
      <text x="1899.552" xml:space="preserve" y="265.5293" clip-path="url(#clipPath2)" font-family="sans-serif" stroke="none">Child</text>
      <path fill="none" d="M2375.417 261.375 L2567.075 261.375" clip-path="url(#clipPath2)"/>
      <path d="M2575.075 261.375 L2563.075 256.375 L2566.075 261.375 L2563.075 266.375 Z" clip-path="url(#clipPath2)" stroke="none"/>
      <text x="2406.845" xml:space="preserve" y="235.5293" clip-path="url(#clipPath2)" font-family="sans-serif" stroke="none">Just ParentActionValue</text>
      <path fill="none" d="M2266.8933 313.3419 L2266.8933 384.2672" clip-path="url(#clipPath2)"/>
      <path d="M2266.8933 392.2672 L2271.8933 380.2672 L2266.8933 383.2672 L2261.8933 380.2672 Z" clip-path="url(#clipPath2)" stroke="none"/>
      <text x="2273.3005" xml:space="preserve" y="356.9754" clip-path="url(#clipPath2)" font-family="sans-serif" stroke="none">Nothing</text>
      <path fill="none" d="M1936.8215 261.375 L2150.3872 261.375" clip-path="url(#clipPath2)"/>
      <path d="M2158.3872 261.375 L2146.3872 256.375 L2149.3872 261.375 L2146.3872 266.375 Z" clip-path="url(#clipPath2)" stroke="none"/>
      <text x="2011.1432" xml:space="preserve" y="288.5449" clip-path="url(#clipPath2)" font-family="sans-serif" stroke="none">Notification:</text>
      <text x="1944.0739" xml:space="preserve" y="302.5137" clip-path="url(#clipPath2)" font-family="sans-serif" stroke="none">child "raises" a message to parent</text>
    </g>
  </g>
</svg>
