<?xml version="1.0" encoding="UTF-8"?><svg xmlns="http://www.w3.org/2000/svg" xmlns:xlink="http://www.w3.org/1999/xlink" fill-opacity="1" color-rendering="auto" color-interpolation="auto" text-rendering="auto" stroke="black" stroke-linecap="square" width="1186" stroke-miterlimit="10" shape-rendering="auto" stroke-opacity="1" fill="black" stroke-dasharray="none" font-weight="normal" stroke-width="1" height="223" font-family="'Dialog'" font-style="normal" stroke-linejoin="miter" font-size="12px" stroke-dashoffset="0" image-rendering="auto">
  <!--Generated by ySVG 2.5-->
  <defs id="genericDefs"/>
  <g>
    <defs id="defs1">
      <clipPath clipPathUnits="userSpaceOnUse" id="clipPath1">
        <path d="M0 0 L1186 0 L1186 223 L0 223 L0 0 Z"/>
      </clipPath>
      <clipPath clipPathUnits="userSpaceOnUse" id="clipPath2">
        <path d="M747 491 L1933 491 L1933 714 L747 714 L747 491 Z"/>
      </clipPath>
    </defs>
    <g fill="white" text-rendering="geometricPrecision" shape-rendering="geometricPrecision" transform="translate(-747,-491)" stroke="white">
      <rect x="747" width="1186" height="223" y="491" clip-path="url(#clipPath2)" stroke="none"/>
    </g>
    <g fill="rgb(255,204,0)" text-rendering="geometricPrecision" shape-rendering="geometricPrecision" transform="matrix(1,0,0,1,-747,-491)" stroke="rgb(255,204,0)">
      <rect x="1378.1911" width="264.9746" height="30" y="621.9782" clip-path="url(#clipPath2)" stroke="none"/>
    </g>
    <g text-rendering="geometricPrecision" stroke-miterlimit="1.45" shape-rendering="geometricPrecision" transform="matrix(1,0,0,1,-747,-491)" stroke-linecap="butt">
      <rect fill="none" x="1378.1911" width="264.9746" height="30" y="621.9782" clip-path="url(#clipPath2)"/>
      <text x="1385.1912" xml:space="preserve" y="641.1324" clip-path="url(#clipPath2)" font-family="sans-serif" stroke="none">child-like component receives input value</text>
    </g>
    <g fill="rgb(255,204,0)" text-rendering="geometricPrecision" shape-rendering="geometricPrecision" transform="matrix(1,0,0,1,-747,-491)" stroke="rgb(255,204,0)">
      <rect x="1400.6296" width="220.0977" height="30" y="530.207" clip-path="url(#clipPath2)" stroke="none"/>
    </g>
    <g text-rendering="geometricPrecision" stroke-miterlimit="1.45" shape-rendering="geometricPrecision" transform="matrix(1,0,0,1,-747,-491)" stroke-linecap="butt">
      <rect fill="none" x="1400.6296" width="220.0977" height="30" y="530.207" clip-path="url(#clipPath2)"/>
      <text x="1407.6296" xml:space="preserve" y="549.3613" clip-path="url(#clipPath2)" font-family="sans-serif" stroke="none">child-like component's initial state</text>
    </g>
    <g fill="rgb(255,204,0)" text-rendering="geometricPrecision" shape-rendering="geometricPrecision" transform="matrix(1,0,0,1,-747,-491)" stroke="rgb(255,204,0)">
      <rect x="1702.7402" width="190.4785" height="30" y="530.207" clip-path="url(#clipPath2)" stroke="none"/>
    </g>
    <g text-rendering="geometricPrecision" stroke-miterlimit="1.45" shape-rendering="geometricPrecision" transform="matrix(1,0,0,1,-747,-491)" stroke-linecap="butt">
      <rect fill="none" x="1702.7402" width="190.4785" height="30" y="530.207" clip-path="url(#clipPath2)"/>
      <text x="1709.7402" xml:space="preserve" y="549.3613" clip-path="url(#clipPath2)" font-family="sans-serif" stroke="none">component's initial rendering</text>
    </g>
    <g fill="rgb(255,204,0)" text-rendering="geometricPrecision" shape-rendering="geometricPrecision" transform="matrix(1,0,0,1,-747,-491)" stroke="rgb(255,204,0)">
      <rect x="1678.9131" width="238.1328" height="42.414" y="615.7712" clip-path="url(#clipPath2)" stroke="none"/>
    </g>
    <g text-rendering="geometricPrecision" stroke-miterlimit="1.45" shape-rendering="geometricPrecision" transform="matrix(1,0,0,1,-747,-491)" stroke-linecap="butt">
      <rect fill="none" x="1678.9131" width="238.1328" height="42.414" y="615.7712" clip-path="url(#clipPath2)"/>
      <text x="1685.9131" xml:space="preserve" y="634.1481" clip-path="url(#clipPath2)" font-family="sans-serif" stroke="none">If compent has child components, </text>
      <text x="1685.9131" xml:space="preserve" y="648.1168" clip-path="url(#clipPath2)" font-family="sans-serif" stroke="none">it passes an Input value to each child</text>
    </g>
    <g fill="rgb(255,204,0)" text-rendering="geometricPrecision" shape-rendering="geometricPrecision" transform="matrix(1,0,0,1,-747,-491)" stroke="rgb(255,204,0)">
      <rect x="762.6573" width="220.2617" height="30" y="530.207" clip-path="url(#clipPath2)" stroke="none"/>
    </g>
    <g text-rendering="geometricPrecision" stroke-miterlimit="1.45" shape-rendering="geometricPrecision" transform="matrix(1,0,0,1,-747,-491)" stroke-linecap="butt">
      <rect fill="none" x="762.6573" width="220.2617" height="30" y="530.207" clip-path="url(#clipPath2)"/>
      <text x="769.6573" xml:space="preserve" y="549.3613" clip-path="url(#clipPath2)" font-family="sans-serif" stroke="none">top-most component's initial state</text>
    </g>
    <g fill="rgb(255,204,0)" text-rendering="geometricPrecision" shape-rendering="geometricPrecision" transform="matrix(1,0,0,1,-747,-491)" stroke="rgb(255,204,0)">
      <rect x="1035.9515" width="248.2754" height="30" y="530.207" clip-path="url(#clipPath2)" stroke="none"/>
    </g>
    <g text-rendering="geometricPrecision" stroke-miterlimit="1.45" shape-rendering="geometricPrecision" transform="matrix(1,0,0,1,-747,-491)" stroke-linecap="butt">
      <rect fill="none" x="1035.9515" width="248.2754" height="30" y="530.207" clip-path="url(#clipPath2)"/>
      <text x="1042.9515" xml:space="preserve" y="549.3613" clip-path="url(#clipPath2)" font-family="sans-serif" stroke="none">top-most component's initial rendering</text>
    </g>
    <g fill="rgb(255,204,0)" text-rendering="geometricPrecision" shape-rendering="geometricPrecision" transform="matrix(1,0,0,1,-747,-491)" stroke="rgb(255,204,0)">
      <rect x="1041.0228" width="238.1328" height="42.414" y="615.7712" clip-path="url(#clipPath2)" stroke="none"/>
    </g>
    <g text-rendering="geometricPrecision" stroke-miterlimit="1.45" shape-rendering="geometricPrecision" transform="matrix(1,0,0,1,-747,-491)" stroke-linecap="butt">
      <rect fill="none" x="1041.0228" width="238.1328" height="42.414" y="615.7712" clip-path="url(#clipPath2)"/>
      <text x="1048.0228" xml:space="preserve" y="634.1481" clip-path="url(#clipPath2)" font-family="sans-serif" stroke="none">If compent has child components, </text>
      <text x="1048.0228" xml:space="preserve" y="648.1168" clip-path="url(#clipPath2)" font-family="sans-serif" stroke="none">it passes an Input value to each child</text>
      <path fill="none" d="M1510.6785 621.9781 L1510.6785 568.207" clip-path="url(#clipPath2)"/>
      <path d="M1510.6785 560.207 L1505.6785 572.207 L1510.6785 569.207 L1515.6785 572.207 Z" clip-path="url(#clipPath2)" stroke="none"/>
      <text x="1549.5925" xml:space="preserve" y="589.4278" clip-path="url(#clipPath2)" font-family="sans-serif" stroke="none">which is </text>
      <text x="1537.4138" xml:space="preserve" y="603.3965" clip-path="url(#clipPath2)" font-family="sans-serif" stroke="none">converted to</text>
      <path fill="none" d="M1620.7273 545.207 L1694.7402 545.207" clip-path="url(#clipPath2)"/>
      <path d="M1702.7402 545.207 L1690.7402 540.207 L1693.7402 545.207 L1690.7402 550.207 Z" clip-path="url(#clipPath2)" stroke="none"/>
      <text x="1614.6742" xml:space="preserve" y="519.3613" clip-path="url(#clipPath2)" font-family="sans-serif" stroke="none">which produces</text>
    </g>
    <g stroke-linecap="round" transform="matrix(1,0,0,1,-747,-491)" stroke-dashoffset="2" text-rendering="geometricPrecision" shape-rendering="geometricPrecision" stroke-dasharray="0,8" stroke-width="2" stroke-miterlimit="1.45">
      <path fill="none" d="M1797.9795 560.207 L1797.9795 606.7712" clip-path="url(#clipPath2)"/>
      <path d="M1797.9795 615.7712 L1803.6045 602.2712 L1797.9795 605.6462 L1792.3545 602.2712 Z" clip-path="url(#clipPath2)" stroke="none"/>
    </g>
    <g text-rendering="geometricPrecision" stroke-miterlimit="1.45" shape-rendering="geometricPrecision" transform="matrix(1,0,0,1,-747,-491)" stroke-linecap="butt">
      <path fill="none" d="M1797.9795 658.1851 L1797.9795 698.3034 L1510.6785 698.3034 L1510.6785 659.9781" clip-path="url(#clipPath2)"/>
      <path d="M1510.6785 651.9781 L1505.6785 663.9781 L1510.6785 660.9781 L1515.6785 663.9781 Z" clip-path="url(#clipPath2)" stroke="none"/>
      <path fill="none" d="M982.919 545.207 L1027.9515 545.207" clip-path="url(#clipPath2)"/>
      <path d="M1035.9515 545.207 L1023.9515 540.207 L1026.9515 545.207 L1023.9515 550.207 Z" clip-path="url(#clipPath2)" stroke="none"/>
      <text x="962.3757" xml:space="preserve" y="519.3613" clip-path="url(#clipPath2)" font-family="sans-serif" stroke="none">which produces</text>
    </g>
    <g stroke-linecap="round" transform="matrix(1,0,0,1,-747,-491)" stroke-dashoffset="2" text-rendering="geometricPrecision" shape-rendering="geometricPrecision" stroke-dasharray="0,8" stroke-width="2" stroke-miterlimit="1.45">
      <path fill="none" d="M1160.0892 560.207 L1160.0892 606.7712" clip-path="url(#clipPath2)"/>
      <path d="M1160.0892 615.7712 L1165.7142 602.2712 L1160.0892 605.6462 L1154.4642 602.2712 Z" clip-path="url(#clipPath2)" stroke="none"/>
    </g>
    <g text-rendering="geometricPrecision" stroke-miterlimit="1.45" shape-rendering="geometricPrecision" transform="matrix(1,0,0,1,-747,-491)" stroke-linecap="butt">
      <path fill="none" d="M1279.1556 636.9781 L1370.1912 636.9781" clip-path="url(#clipPath2)"/>
      <path d="M1378.1912 636.9781 L1366.1912 631.9781 L1369.1912 636.9781 L1366.1912 641.9781 Z" clip-path="url(#clipPath2)" stroke="none"/>
    </g>
  </g>
</svg>
