<?xml version="1.0" encoding="UTF-8"?><svg xmlns="http://www.w3.org/2000/svg" xmlns:xlink="http://www.w3.org/1999/xlink" fill-opacity="1" color-rendering="auto" color-interpolation="auto" text-rendering="auto" stroke="black" stroke-linecap="square" width="694" stroke-miterlimit="10" shape-rendering="auto" stroke-opacity="1" fill="black" stroke-dasharray="none" font-weight="normal" stroke-width="1" height="337" font-family="'Dialog'" font-style="normal" stroke-linejoin="miter" font-size="12px" stroke-dashoffset="0" image-rendering="auto">
  <!--Generated by ySVG 2.5-->
  <defs id="genericDefs"/>
  <g>
    <defs id="defs1">
      <linearGradient x1="386.0192" gradientUnits="userSpaceOnUse" x2="413.9424" y1="448.5" y2="448.5" id="linearGradient1" spreadMethod="reflect">
        <stop stop-opacity="1" stop-color="rgb(255,204,153)" offset="0%"/>
        <stop stop-opacity="1" stop-color="rgb(204,255,255)" offset="100%"/>
      </linearGradient>
      <linearGradient x1="688.2116" gradientUnits="userSpaceOnUse" x2="716.1348" y1="273.5" y2="273.5" id="linearGradient2" spreadMethod="reflect">
        <stop stop-opacity="1" stop-color="rgb(255,204,153)" offset="0%"/>
        <stop stop-opacity="1" stop-color="rgb(204,255,255)" offset="100%"/>
      </linearGradient>
      <linearGradient x1="685.5246" gradientUnits="userSpaceOnUse" x2="713.4478" y1="368.5" y2="368.5" id="linearGradient3" spreadMethod="reflect">
        <stop stop-opacity="1" stop-color="rgb(255,204,153)" offset="0%"/>
        <stop stop-opacity="1" stop-color="rgb(204,255,255)" offset="100%"/>
      </linearGradient>
      <linearGradient x1="685.5246" gradientUnits="userSpaceOnUse" x2="713.4478" y1="463.5" y2="463.5" id="linearGradient4" spreadMethod="reflect">
        <stop stop-opacity="1" stop-color="rgb(255,204,153)" offset="0%"/>
        <stop stop-opacity="1" stop-color="rgb(204,255,255)" offset="100%"/>
      </linearGradient>
      <linearGradient x1="788.4404" gradientUnits="userSpaceOnUse" x2="816.3635" y1="438.5" y2="438.5" id="linearGradient5" spreadMethod="reflect">
        <stop stop-opacity="1" stop-color="rgb(255,204,153)" offset="0%"/>
        <stop stop-opacity="1" stop-color="rgb(204,255,255)" offset="100%"/>
      </linearGradient>
      <linearGradient x1="788.4404" gradientUnits="userSpaceOnUse" x2="816.3635" y1="498.5" y2="498.5" id="linearGradient6" spreadMethod="reflect">
        <stop stop-opacity="1" stop-color="rgb(255,204,153)" offset="0%"/>
        <stop stop-opacity="1" stop-color="rgb(204,255,255)" offset="100%"/>
      </linearGradient>
      <clipPath clipPathUnits="userSpaceOnUse" id="clipPath1">
        <path d="M0 0 L694 0 L694 337 L0 337 L0 0 Z"/>
      </clipPath>
      <clipPath clipPathUnits="userSpaceOnUse" id="clipPath2">
        <path d="M258 222 L952 222 L952 559 L258 559 L258 222 Z"/>
      </clipPath>
    </defs>
    <g fill="white" text-rendering="geometricPrecision" shape-rendering="geometricPrecision" transform="translate(-258,-222)" stroke="white">
      <rect x="258" width="694" height="337" y="222" clip-path="url(#clipPath2)" stroke="none"/>
    </g>
    <g fill="rgb(245,245,245)" text-rendering="geometricPrecision" shape-rendering="geometricPrecision" transform="matrix(1,0,0,1,-258,-222)" stroke="rgb(245,245,245)">
      <rect x="273.8408" y="282.0391" clip-path="url(#clipPath2)" width="223.5571" rx="4" ry="4" height="211.4609" stroke="none"/>
      <rect x="273.8408" y="282.0391" clip-path="url(#clipPath2)" fill="rgb(235,235,235)" width="223.5571" height="21.4609" stroke="none"/>
    </g>
    <g font-size="15px" stroke-linecap="butt" transform="matrix(1,0,0,1,-258,-222)" text-rendering="geometricPrecision" font-family="sans-serif" shape-rendering="geometricPrecision" stroke-miterlimit="1.45">
      <text x="357.9375" xml:space="preserve" y="297.9624" clip-path="url(#clipPath2)" stroke="none">Legend</text>
      <rect x="273.8408" y="282.0391" clip-path="url(#clipPath2)" fill="none" width="223.5571" stroke-dasharray="6,2" rx="4" ry="4" height="211.4609"/>
    </g>
    <g fill="rgb(204,255,255)" text-rendering="geometricPrecision" shape-rendering="geometricPrecision" transform="matrix(1,0,0,1,-258,-222)" stroke="rgb(204,255,255)">
      <rect x="370.8652" width="44.2695" height="30" y="318.5" clip-path="url(#clipPath2)" stroke="none"/>
    </g>
    <g text-rendering="geometricPrecision" stroke-miterlimit="1.45" shape-rendering="geometricPrecision" transform="matrix(1,0,0,1,-258,-222)" stroke-linecap="butt">
      <rect fill="none" x="370.8652" width="44.2695" height="30" y="318.5" clip-path="url(#clipPath2)"/>
      <text x="377.8652" xml:space="preserve" y="337.6543" clip-path="url(#clipPath2)" font-family="sans-serif" stroke="none">Child</text>
    </g>
    <g fill="rgb(255,204,153)" text-rendering="geometricPrecision" shape-rendering="geometricPrecision" transform="matrix(1,0,0,1,-258,-222)" stroke="rgb(255,204,153)">
      <rect x="323.3916" width="53.2168" height="30" y="378.5" clip-path="url(#clipPath2)" stroke="none"/>
    </g>
    <g text-rendering="geometricPrecision" stroke-miterlimit="1.45" shape-rendering="geometricPrecision" transform="matrix(1,0,0,1,-258,-222)" stroke-linecap="butt">
      <rect fill="none" x="323.3916" width="53.2168" height="30" y="378.5" clip-path="url(#clipPath2)"/>
      <text x="330.3916" xml:space="preserve" y="397.6543" clip-path="url(#clipPath2)" font-family="sans-serif" stroke="none">Parent</text>
    </g>
    <g fill="rgb(204,255,255)" text-rendering="geometricPrecision" shape-rendering="geometricPrecision" transform="matrix(1,0,0,1,-258,-222)" stroke="rgb(204,255,255)">
      <rect x="405.8652" width="44.2695" height="30" y="378.5" clip-path="url(#clipPath2)" stroke="none"/>
    </g>
    <g text-rendering="geometricPrecision" stroke-miterlimit="1.45" shape-rendering="geometricPrecision" transform="matrix(1,0,0,1,-258,-222)" stroke-linecap="butt">
      <rect fill="none" x="405.8652" width="44.2695" height="30" y="378.5" clip-path="url(#clipPath2)"/>
      <text x="412.8652" xml:space="preserve" y="397.6543" clip-path="url(#clipPath2)" font-family="sans-serif" stroke="none">Child</text>
    </g>
    <g fill="rgb(255,204,153)" text-rendering="geometricPrecision" shape-rendering="geometricPrecision" transform="matrix(1,0,0,1,-258,-222)" stroke="rgb(255,204,153)">
      <rect x="288.8408" width="53.2168" height="30" y="448.5" clip-path="url(#clipPath2)" stroke="none"/>
    </g>
    <g text-rendering="geometricPrecision" stroke-miterlimit="1.45" shape-rendering="geometricPrecision" transform="matrix(1,0,0,1,-258,-222)" stroke-linecap="butt">
      <rect fill="none" x="288.8408" width="53.2168" height="30" y="448.5" clip-path="url(#clipPath2)"/>
      <text x="295.8408" xml:space="preserve" y="467.6543" clip-path="url(#clipPath2)" font-family="sans-serif" stroke="none">Parent</text>
    </g>
    <g fill="url(#linearGradient1)" text-rendering="geometricPrecision" shape-rendering="geometricPrecision" transform="matrix(1,0,0,1,-258,-222)" stroke="url(#linearGradient1)">
      <rect x="372.0576" width="41.8848" height="30" y="448.5" clip-path="url(#clipPath2)" stroke="none"/>
    </g>
    <g text-rendering="geometricPrecision" stroke-miterlimit="1.45" shape-rendering="geometricPrecision" transform="matrix(1,0,0,1,-258,-222)" stroke-linecap="butt">
      <rect fill="none" x="372.0576" width="41.8848" height="30" y="448.5" clip-path="url(#clipPath2)"/>
      <text x="379.0576" xml:space="preserve" y="467.6543" clip-path="url(#clipPath2)" font-family="sans-serif" stroke="none">Both</text>
    </g>
    <g fill="rgb(204,255,255)" text-rendering="geometricPrecision" shape-rendering="geometricPrecision" transform="matrix(1,0,0,1,-258,-222)" stroke="rgb(204,255,255)">
      <rect x="438.1284" width="44.2695" height="30" y="448.5" clip-path="url(#clipPath2)" stroke="none"/>
    </g>
    <g text-rendering="geometricPrecision" stroke-miterlimit="1.45" shape-rendering="geometricPrecision" transform="matrix(1,0,0,1,-258,-222)" stroke-linecap="butt">
      <rect fill="none" x="438.1284" width="44.2695" height="30" y="448.5" clip-path="url(#clipPath2)"/>
      <text x="445.1284" xml:space="preserve" y="467.6543" clip-path="url(#clipPath2)" font-family="sans-serif" stroke="none">Child</text>
      <path fill="none" d="M376.6084 393.5 L397.8652 393.5" clip-path="url(#clipPath2)"/>
      <path d="M405.8652 393.5 L393.8652 388.5 L396.8652 393.5 L393.8652 398.5 Z" clip-path="url(#clipPath2)" stroke="none"/>
      <path fill="none" d="M342.0576 463.5 L364.0576 463.5" clip-path="url(#clipPath2)"/>
      <path d="M372.0576 463.5 L360.0576 458.5 L363.0576 463.5 L360.0576 468.5 Z" clip-path="url(#clipPath2)" stroke="none"/>
      <path fill="none" d="M413.9424 463.5 L430.1284 463.5" clip-path="url(#clipPath2)"/>
      <path d="M438.1284 463.5 L426.1284 458.5 L429.1284 463.5 L426.1284 468.5 Z" clip-path="url(#clipPath2)" stroke="none"/>
    </g>
    <g fill="rgb(245,245,245)" text-rendering="geometricPrecision" shape-rendering="geometricPrecision" transform="matrix(1,0,0,1,-258,-222)" stroke="rgb(245,245,245)">
      <rect x="547.9741" y="237.0391" clip-path="url(#clipPath2)" width="388.6899" rx="4" ry="4" height="306.4609" stroke="none"/>
      <rect x="547.9741" y="237.0391" clip-path="url(#clipPath2)" fill="rgb(235,235,235)" width="388.6899" height="21.4609" stroke="none"/>
    </g>
    <g font-size="15px" stroke-linecap="butt" transform="matrix(1,0,0,1,-258,-222)" text-rendering="geometricPrecision" font-family="sans-serif" shape-rendering="geometricPrecision" stroke-miterlimit="1.45">
      <text x="709.7812" xml:space="preserve" y="252.9624" clip-path="url(#clipPath2)" stroke="none">Example</text>
      <rect x="547.9741" y="237.0391" clip-path="url(#clipPath2)" fill="none" width="388.6899" stroke-dasharray="6,2" rx="4" ry="4" height="306.4609"/>
    </g>
    <g fill="rgb(255,204,153)" text-rendering="geometricPrecision" shape-rendering="geometricPrecision" transform="matrix(1,0,0,1,-258,-222)" stroke="rgb(255,204,153)">
      <rect x="562.9741" width="53.2168" height="30" y="368.5" clip-path="url(#clipPath2)" stroke="none"/>
    </g>
    <g text-rendering="geometricPrecision" stroke-miterlimit="1.45" shape-rendering="geometricPrecision" transform="matrix(1,0,0,1,-258,-222)" stroke-linecap="butt">
      <rect fill="none" x="562.9741" width="53.2168" height="30" y="368.5" clip-path="url(#clipPath2)"/>
      <text x="569.9741" xml:space="preserve" y="387.6543" clip-path="url(#clipPath2)" font-family="sans-serif" stroke="none">Parent</text>
    </g>
    <g fill="url(#linearGradient2)" text-rendering="geometricPrecision" shape-rendering="geometricPrecision" transform="matrix(1,0,0,1,-258,-222)" stroke="url(#linearGradient2)">
      <rect x="674.25" width="41.8848" height="30" y="273.5" clip-path="url(#clipPath2)" stroke="none"/>
    </g>
    <g text-rendering="geometricPrecision" stroke-miterlimit="1.45" shape-rendering="geometricPrecision" transform="matrix(1,0,0,1,-258,-222)" stroke-linecap="butt">
      <rect fill="none" x="674.25" width="41.8848" height="30" y="273.5" clip-path="url(#clipPath2)"/>
      <text x="681.25" xml:space="preserve" y="292.6543" clip-path="url(#clipPath2)" font-family="sans-serif" stroke="none">Both</text>
    </g>
    <g fill="rgb(204,255,255)" text-rendering="geometricPrecision" shape-rendering="geometricPrecision" transform="matrix(1,0,0,1,-258,-222)" stroke="rgb(204,255,255)">
      <rect x="773.2864" width="44.2695" height="30" y="273.5" clip-path="url(#clipPath2)" stroke="none"/>
    </g>
    <g text-rendering="geometricPrecision" stroke-miterlimit="1.45" shape-rendering="geometricPrecision" transform="matrix(1,0,0,1,-258,-222)" stroke-linecap="butt">
      <rect fill="none" x="773.2864" width="44.2695" height="30" y="273.5" clip-path="url(#clipPath2)"/>
      <text x="780.2864" xml:space="preserve" y="292.6543" clip-path="url(#clipPath2)" font-family="sans-serif" stroke="none">Child</text>
    </g>
    <g fill="url(#linearGradient3)" text-rendering="geometricPrecision" shape-rendering="geometricPrecision" transform="matrix(1,0,0,1,-258,-222)" stroke="url(#linearGradient3)">
      <rect x="671.563" width="41.8848" height="30" y="368.5" clip-path="url(#clipPath2)" stroke="none"/>
    </g>
    <g text-rendering="geometricPrecision" stroke-miterlimit="1.45" shape-rendering="geometricPrecision" transform="matrix(1,0,0,1,-258,-222)" stroke-linecap="butt">
      <rect fill="none" x="671.563" width="41.8848" height="30" y="368.5" clip-path="url(#clipPath2)"/>
      <text x="678.563" xml:space="preserve" y="387.6543" clip-path="url(#clipPath2)" font-family="sans-serif" stroke="none">Both</text>
    </g>
    <g fill="rgb(204,255,255)" text-rendering="geometricPrecision" shape-rendering="geometricPrecision" transform="matrix(1,0,0,1,-258,-222)" stroke="rgb(204,255,255)">
      <rect x="773.2864" width="44.2695" height="30" y="333.5" clip-path="url(#clipPath2)" stroke="none"/>
    </g>
    <g text-rendering="geometricPrecision" stroke-miterlimit="1.45" shape-rendering="geometricPrecision" transform="matrix(1,0,0,1,-258,-222)" stroke-linecap="butt">
      <rect fill="none" x="773.2864" width="44.2695" height="30" y="333.5" clip-path="url(#clipPath2)"/>
      <text x="780.2864" xml:space="preserve" y="352.6543" clip-path="url(#clipPath2)" font-family="sans-serif" stroke="none">Child</text>
    </g>
    <g fill="rgb(204,255,255)" text-rendering="geometricPrecision" shape-rendering="geometricPrecision" transform="matrix(1,0,0,1,-258,-222)" stroke="rgb(204,255,255)">
      <rect x="773.2864" width="44.2695" height="30" y="393.5" clip-path="url(#clipPath2)" stroke="none"/>
    </g>
    <g text-rendering="geometricPrecision" stroke-miterlimit="1.45" shape-rendering="geometricPrecision" transform="matrix(1,0,0,1,-258,-222)" stroke-linecap="butt">
      <rect fill="none" x="773.2864" width="44.2695" height="30" y="393.5" clip-path="url(#clipPath2)"/>
      <text x="780.2864" xml:space="preserve" y="412.6543" clip-path="url(#clipPath2)" font-family="sans-serif" stroke="none">Child</text>
    </g>
    <g fill="url(#linearGradient4)" text-rendering="geometricPrecision" shape-rendering="geometricPrecision" transform="matrix(1,0,0,1,-258,-222)" stroke="url(#linearGradient4)">
      <rect x="671.563" width="41.8848" height="30" y="463.5" clip-path="url(#clipPath2)" stroke="none"/>
    </g>
    <g text-rendering="geometricPrecision" stroke-miterlimit="1.45" shape-rendering="geometricPrecision" transform="matrix(1,0,0,1,-258,-222)" stroke-linecap="butt">
      <rect fill="none" x="671.563" width="41.8848" height="30" y="463.5" clip-path="url(#clipPath2)"/>
      <text x="678.563" xml:space="preserve" y="482.6543" clip-path="url(#clipPath2)" font-family="sans-serif" stroke="none">Both</text>
    </g>
    <g fill="url(#linearGradient5)" text-rendering="geometricPrecision" shape-rendering="geometricPrecision" transform="matrix(1,0,0,1,-258,-222)" stroke="url(#linearGradient5)">
      <rect x="774.4788" width="41.8848" height="30" y="438.5" clip-path="url(#clipPath2)" stroke="none"/>
    </g>
    <g text-rendering="geometricPrecision" stroke-miterlimit="1.45" shape-rendering="geometricPrecision" transform="matrix(1,0,0,1,-258,-222)" stroke-linecap="butt">
      <rect fill="none" x="774.4788" width="41.8848" height="30" y="438.5" clip-path="url(#clipPath2)"/>
      <text x="781.4788" xml:space="preserve" y="457.6543" clip-path="url(#clipPath2)" font-family="sans-serif" stroke="none">Both</text>
    </g>
    <g fill="rgb(204,255,255)" text-rendering="geometricPrecision" shape-rendering="geometricPrecision" transform="matrix(1,0,0,1,-258,-222)" stroke="rgb(204,255,255)">
      <rect x="877.3945" width="44.2695" height="30" y="438.5" clip-path="url(#clipPath2)" stroke="none"/>
    </g>
    <g text-rendering="geometricPrecision" stroke-miterlimit="1.45" shape-rendering="geometricPrecision" transform="matrix(1,0,0,1,-258,-222)" stroke-linecap="butt">
      <rect fill="none" x="877.3945" width="44.2695" height="30" y="438.5" clip-path="url(#clipPath2)"/>
      <text x="884.3945" xml:space="preserve" y="457.6543" clip-path="url(#clipPath2)" font-family="sans-serif" stroke="none">Child</text>
    </g>
    <g fill="url(#linearGradient6)" text-rendering="geometricPrecision" shape-rendering="geometricPrecision" transform="matrix(1,0,0,1,-258,-222)" stroke="url(#linearGradient6)">
      <rect x="774.4788" width="41.8848" height="30" y="498.5" clip-path="url(#clipPath2)" stroke="none"/>
    </g>
    <g text-rendering="geometricPrecision" stroke-miterlimit="1.45" shape-rendering="geometricPrecision" transform="matrix(1,0,0,1,-258,-222)" stroke-linecap="butt">
      <rect fill="none" x="774.4788" width="41.8848" height="30" y="498.5" clip-path="url(#clipPath2)"/>
      <text x="781.4788" xml:space="preserve" y="517.6543" clip-path="url(#clipPath2)" font-family="sans-serif" stroke="none">Both</text>
    </g>
    <g fill="rgb(204,255,255)" text-rendering="geometricPrecision" shape-rendering="geometricPrecision" transform="matrix(1,0,0,1,-258,-222)" stroke="rgb(204,255,255)">
      <rect x="877.3945" width="44.2695" height="30" y="498.5" clip-path="url(#clipPath2)" stroke="none"/>
    </g>
    <g text-rendering="geometricPrecision" stroke-miterlimit="1.45" shape-rendering="geometricPrecision" transform="matrix(1,0,0,1,-258,-222)" stroke-linecap="butt">
      <rect fill="none" x="877.3945" width="44.2695" height="30" y="498.5" clip-path="url(#clipPath2)"/>
      <text x="884.3945" xml:space="preserve" y="517.6543" clip-path="url(#clipPath2)" font-family="sans-serif" stroke="none">Child</text>
      <path fill="none" d="M606.2578 368.5 L672.5694 308.8502" clip-path="url(#clipPath2)"/>
      <path d="M678.5172 303.5 L666.2517 307.8079 L671.8259 309.519 L672.9394 315.2426 Z" clip-path="url(#clipPath2)" stroke="none"/>
      <path fill="none" d="M716.1348 288.5 L765.2864 288.5" clip-path="url(#clipPath2)"/>
      <path d="M773.2864 288.5 L761.2864 283.5 L764.2864 288.5 L761.2864 293.5 Z" clip-path="url(#clipPath2)" stroke="none"/>
      <path fill="none" d="M616.1909 383.5 L663.563 383.5" clip-path="url(#clipPath2)"/>
      <path d="M671.563 383.5 L659.563 378.5 L662.563 383.5 L659.563 388.5 Z" clip-path="url(#clipPath2)" stroke="none"/>
      <path fill="none" d="M713.4478 376.3778 L765.7124 358.6035" clip-path="url(#clipPath2)"/>
      <path d="M773.2864 356.0277 L760.3156 355.1576 L764.7656 358.9254 L763.5353 364.6251 Z" clip-path="url(#clipPath2)" stroke="none"/>
      <path fill="none" d="M713.4478 388.5872 L765.5125 401.2347" clip-path="url(#clipPath2)"/>
      <path d="M773.2864 403.1231 L762.8057 395.4318 L764.5407 400.9986 L760.4453 405.1492 Z" clip-path="url(#clipPath2)" stroke="none"/>
      <path fill="none" d="M605.8335 398.5 L670.3758 458.0739" clip-path="url(#clipPath2)"/>
      <path d="M676.2544 463.5 L670.8278 451.6868 L669.641 457.3957 L664.0452 459.035 Z" clip-path="url(#clipPath2)" stroke="none"/>
      <path fill="none" d="M713.4478 473.4128 L766.7048 460.4757" clip-path="url(#clipPath2)"/>
      <path d="M774.4788 458.5872 L761.6376 456.5612 L765.7331 460.7117 L763.9982 466.2786 Z" clip-path="url(#clipPath2)" stroke="none"/>
      <path fill="none" d="M816.3635 453.5 L869.3945 453.5" clip-path="url(#clipPath2)"/>
      <path d="M877.3945 453.5 L865.3945 448.5 L868.3945 453.5 L865.3945 458.5 Z" clip-path="url(#clipPath2)" stroke="none"/>
      <path fill="none" d="M713.4478 485.6222 L766.9048 503.802" clip-path="url(#clipPath2)"/>
      <path d="M774.4788 506.3778 L764.7277 497.7804 L765.958 503.48 L761.5079 507.2479 Z" clip-path="url(#clipPath2)" stroke="none"/>
      <path fill="none" d="M816.3635 513.5 L869.3945 513.5" clip-path="url(#clipPath2)"/>
      <path d="M877.3945 513.5 L865.3945 508.5 L868.3945 513.5 L865.3945 518.5 Z" clip-path="url(#clipPath2)" stroke="none"/>
    </g>
  </g>
</svg>
