<?xml version="1.0" encoding="UTF-8"?><svg xmlns="http://www.w3.org/2000/svg" xmlns:xlink="http://www.w3.org/1999/xlink" fill-opacity="1" color-rendering="auto" color-interpolation="auto" text-rendering="auto" stroke="black" stroke-linecap="square" width="894" stroke-miterlimit="10" shape-rendering="auto" stroke-opacity="1" fill="black" stroke-dasharray="none" font-weight="normal" stroke-width="1" height="694" font-family="'Dialog'" font-style="normal" stroke-linejoin="miter" font-size="12px" stroke-dashoffset="0" image-rendering="auto">
  <!--Generated by ySVG 2.5-->
  <defs id="genericDefs"/>
  <g>
    <defs id="defs1">
      <clipPath clipPathUnits="userSpaceOnUse" id="clipPath1">
        <path d="M0 0 L894 0 L894 694 L0 694 L0 0 Z"/>
      </clipPath>
      <clipPath clipPathUnits="userSpaceOnUse" id="clipPath2">
        <path d="M1900 489 L2794 489 L2794 1183 L1900 1183 L1900 489 Z"/>
      </clipPath>
    </defs>
    <g fill="white" text-rendering="geometricPrecision" shape-rendering="geometricPrecision" transform="translate(-1900,-489)" stroke="white">
      <rect x="1900" width="894" height="694" y="489" clip-path="url(#clipPath2)" stroke="none"/>
    </g>
    <g fill="rgb(245,245,245)" text-rendering="geometricPrecision" shape-rendering="geometricPrecision" transform="matrix(1,0,0,1,-1900,-489)" stroke="rgb(245,245,245)">
      <rect x="1915.6816" y="504.8625" clip-path="url(#clipPath2)" width="863.2168" rx="4" ry="4" height="402.3438" stroke="none"/>
      <rect x="1915.6816" y="504.8625" clip-path="url(#clipPath2)" fill="rgb(235,235,235)" width="863.2168" height="38.9219" stroke="none"/>
    </g>
    <g font-size="15px" stroke-linecap="butt" transform="matrix(1,0,0,1,-1900,-489)" text-rendering="geometricPrecision" font-family="sans-serif" shape-rendering="geometricPrecision" stroke-miterlimit="1.45">
      <text x="2313.4192" xml:space="preserve" y="520.7858" clip-path="url(#clipPath2)" stroke="none">Queries: </text>
      <text x="2229.718" xml:space="preserve" y="538.2467" clip-path="url(#clipPath2)" stroke="none">Parent -&gt; Child communication</text>
      <rect x="1915.6816" y="504.8625" clip-path="url(#clipPath2)" fill="none" width="863.2168" stroke-dasharray="6,2" rx="4" ry="4" height="402.3438"/>
    </g>
    <g fill="rgb(225,225,225)" text-rendering="geometricPrecision" shape-rendering="geometricPrecision" transform="matrix(1,0,0,1,-1900,-489)" stroke="rgb(225,225,225)">
      <rect x="1930.6816" y="558.7843" clip-path="url(#clipPath2)" width="374.7874" rx="4" ry="4" height="333.4219" stroke="none"/>
      <rect x="1930.6816" y="558.7843" clip-path="url(#clipPath2)" fill="rgb(235,235,235)" width="374.7874" height="38.9219" stroke="none"/>
    </g>
    <g font-size="15px" stroke-linecap="butt" transform="matrix(1,0,0,1,-1900,-489)" text-rendering="geometricPrecision" font-family="sans-serif" shape-rendering="geometricPrecision" stroke-miterlimit="1.45">
      <text x="2082.0034" xml:space="preserve" y="574.7076" clip-path="url(#clipPath2)" stroke="none">Question:</text>
      <text x="2026.5482" xml:space="preserve" y="592.1686" clip-path="url(#clipPath2)" stroke="none">Getting info from a child</text>
      <rect x="1930.6816" y="558.7843" clip-path="url(#clipPath2)" fill="none" width="374.7874" stroke-dasharray="6,2" rx="4" ry="4" height="333.4219"/>
    </g>
    <g fill="rgb(255,204,0)" text-rendering="geometricPrecision" shape-rendering="geometricPrecision" transform="matrix(1,0,0,1,-1900,-489)" stroke="rgb(255,204,0)">
      <rect x="1988.6816" width="53.2168" height="30" y="730.7062" clip-path="url(#clipPath2)" stroke="none"/>
    </g>
    <g text-rendering="geometricPrecision" stroke-miterlimit="1.45" shape-rendering="geometricPrecision" transform="matrix(1,0,0,1,-1900,-489)" stroke-linecap="butt">
      <rect fill="none" x="1988.6816" width="53.2168" height="30" y="730.7062" clip-path="url(#clipPath2)"/>
      <text x="1995.6816" xml:space="preserve" y="749.8605" clip-path="url(#clipPath2)" font-family="sans-serif" stroke="none">Parent</text>
    </g>
    <g fill="rgb(255,204,0)" text-rendering="geometricPrecision" shape-rendering="geometricPrecision" transform="matrix(1,0,0,1,-1900,-489)" stroke="rgb(255,204,0)">
      <rect x="2203.1995" width="44.2695" height="30" y="730.7062" clip-path="url(#clipPath2)" stroke="none"/>
    </g>
    <g text-rendering="geometricPrecision" stroke-miterlimit="1.45" shape-rendering="geometricPrecision" transform="matrix(1,0,0,1,-1900,-489)" stroke-linecap="butt">
      <rect fill="none" x="2203.1995" width="44.2695" height="30" y="730.7062" clip-path="url(#clipPath2)"/>
      <text x="2210.1995" xml:space="preserve" y="749.8605" clip-path="url(#clipPath2)" font-family="sans-serif" stroke="none">Child</text>
      <path fill="none" d="M2015.29 730.7062 L2015.29 708.4973 L2225.3342 708.4973 L2225.3342 722.7062" clip-path="url(#clipPath2)"/>
      <path d="M2225.3342 730.7062 L2230.3342 718.7062 L2225.3342 721.7062 L2220.3342 718.7062 Z" clip-path="url(#clipPath2)" stroke="none"/>
      <text x="2089.5474" xml:space="preserve" y="660.3622" clip-path="url(#clipPath2)" font-family="sans-serif" stroke="none">Question: </text>
      <text x="2007.8824" xml:space="preserve" y="674.331" clip-path="url(#clipPath2)" font-family="sans-serif" stroke="none">parent "queries" child for information</text>
      <text x="2027.6403" xml:space="preserve" y="688.2997" clip-path="url(#clipPath2)" font-family="sans-serif" stroke="none">and includes a "reply" function</text>
      <path fill="none" d="M2225.3342 760.7062 L2225.3342 777.6897 L2015.29 777.6897 L2015.29 768.7062" clip-path="url(#clipPath2)"/>
      <path d="M2015.29 760.7062 L2010.29 772.7062 L2015.29 769.7062 L2020.29 772.7062 Z" clip-path="url(#clipPath2)" stroke="none"/>
      <text x="2096.1919" xml:space="preserve" y="807.9221" clip-path="url(#clipPath2)" font-family="sans-serif" stroke="none">Answer:</text>
      <text x="1997.5992" xml:space="preserve" y="821.8909" clip-path="url(#clipPath2)" font-family="sans-serif" stroke="none">child passes answer into "reply" function</text>
      <text x="2118.4048" xml:space="preserve" y="835.8596" clip-path="url(#clipPath2)" font-family="sans-serif" stroke="none"> </text>
      <text x="2046.2584" xml:space="preserve" y="849.8284" clip-path="url(#clipPath2)" font-family="sans-serif" stroke="none">"reply" is the rest of the </text>
      <text x="2017.9957" xml:space="preserve" y="863.7971" clip-path="url(#clipPath2)" font-family="sans-serif" stroke="none">parent's computation that will run</text>
      <text x="2026.8492" xml:space="preserve" y="877.7659" clip-path="url(#clipPath2)" font-family="sans-serif" stroke="none">once that information is known</text>
    </g>
    <g fill="rgb(225,225,225)" text-rendering="geometricPrecision" shape-rendering="geometricPrecision" transform="matrix(1,0,0,1,-1900,-489)" stroke="rgb(225,225,225)">
      <rect x="2389.111" y="570.0343" clip-path="url(#clipPath2)" width="374.7874" rx="4" ry="4" height="310.9219" stroke="none"/>
      <rect x="2389.111" y="570.0343" clip-path="url(#clipPath2)" fill="rgb(235,235,235)" width="374.7874" height="38.9219" stroke="none"/>
    </g>
    <g font-size="15px" stroke-linecap="butt" transform="matrix(1,0,0,1,-1900,-489)" text-rendering="geometricPrecision" font-family="sans-serif" shape-rendering="geometricPrecision" stroke-miterlimit="1.45">
      <text x="2535.4304" xml:space="preserve" y="585.9576" clip-path="url(#clipPath2)" stroke="none">Command:</text>
      <text x="2467.6155" xml:space="preserve" y="603.4186" clip-path="url(#clipPath2)" stroke="none">Telling chlid to do something</text>
      <rect x="2389.111" y="570.0343" clip-path="url(#clipPath2)" fill="none" width="374.7874" stroke-dasharray="6,2" rx="4" ry="4" height="310.9219"/>
    </g>
    <g fill="rgb(255,204,0)" text-rendering="geometricPrecision" shape-rendering="geometricPrecision" transform="matrix(1,0,0,1,-1900,-489)" stroke="rgb(255,204,0)">
      <rect x="2447.111" width="53.2168" height="30" y="708.9562" clip-path="url(#clipPath2)" stroke="none"/>
    </g>
    <g text-rendering="geometricPrecision" stroke-miterlimit="1.45" shape-rendering="geometricPrecision" transform="matrix(1,0,0,1,-1900,-489)" stroke-linecap="butt">
      <rect fill="none" x="2447.111" width="53.2168" height="30" y="708.9562" clip-path="url(#clipPath2)"/>
      <text x="2454.1111" xml:space="preserve" y="728.1105" clip-path="url(#clipPath2)" font-family="sans-serif" stroke="none">Parent</text>
    </g>
    <g fill="rgb(255,204,0)" text-rendering="geometricPrecision" shape-rendering="geometricPrecision" transform="matrix(1,0,0,1,-1900,-489)" stroke="rgb(255,204,0)">
      <rect x="2661.6289" width="44.2695" height="30" y="708.9562" clip-path="url(#clipPath2)" stroke="none"/>
    </g>
    <g text-rendering="geometricPrecision" stroke-miterlimit="1.45" shape-rendering="geometricPrecision" transform="matrix(1,0,0,1,-1900,-489)" stroke-linecap="butt">
      <rect fill="none" x="2661.6289" width="44.2695" height="30" y="708.9562" clip-path="url(#clipPath2)"/>
      <text x="2668.6289" xml:space="preserve" y="728.1105" clip-path="url(#clipPath2)" font-family="sans-serif" stroke="none">Child</text>
      <path fill="none" d="M2473.7195 708.9562 L2473.7195 686.7473 L2683.7637 686.7473 L2683.7637 700.9562" clip-path="url(#clipPath2)"/>
      <path d="M2683.7637 708.9562 L2688.7637 696.9562 L2683.7637 699.9562 L2678.7637 696.9562 Z" clip-path="url(#clipPath2)" stroke="none"/>
      <text x="2543.9749" xml:space="preserve" y="624.6435" clip-path="url(#clipPath2)" font-family="sans-serif" stroke="none">Command: </text>
      <text x="2466.3118" xml:space="preserve" y="638.6122" clip-path="url(#clipPath2)" font-family="sans-serif" stroke="none">parent "queries" child for information</text>
      <text x="2481.886" xml:space="preserve" y="652.581" clip-path="url(#clipPath2)" font-family="sans-serif" stroke="none">and includes a "next" value that</text>
      <text x="2461.9202" xml:space="preserve" y="666.5497" clip-path="url(#clipPath2)" font-family="sans-serif" stroke="none">represents the rest of the computation</text>
      <path fill="none" d="M2683.7637 738.9562 L2683.7637 755.9397 L2473.7195 755.9397 L2473.7195 746.9562" clip-path="url(#clipPath2)"/>
      <path d="M2473.7195 738.9562 L2468.7195 750.9562 L2473.7195 747.9562 L2478.7195 750.9562 Z" clip-path="url(#clipPath2)" stroke="none"/>
      <text x="2556.9114" xml:space="preserve" y="783.1877" clip-path="url(#clipPath2)" font-family="sans-serif" stroke="none">Result:</text>
      <text x="2486.4114" xml:space="preserve" y="797.1565" clip-path="url(#clipPath2)" font-family="sans-serif" stroke="none">child does the action and then</text>
      <text x="2465.2913" xml:space="preserve" y="811.1252" clip-path="url(#clipPath2)" font-family="sans-serif" stroke="none">continues the computation via "next"</text>
      <text x="2575.8342" xml:space="preserve" y="825.094" clip-path="url(#clipPath2)" font-family="sans-serif" stroke="none"> </text>
      <text x="2505.4749" xml:space="preserve" y="839.0627" clip-path="url(#clipPath2)" font-family="sans-serif" stroke="none">"next" is the rest of the </text>
      <text x="2475.425" xml:space="preserve" y="853.0315" clip-path="url(#clipPath2)" font-family="sans-serif" stroke="none">parent's computation that will run</text>
      <text x="2467.7258" xml:space="preserve" y="867.0002" clip-path="url(#clipPath2)" font-family="sans-serif" stroke="none">once the child is done with its action</text>
    </g>
    <g fill="rgb(245,245,245)" text-rendering="geometricPrecision" shape-rendering="geometricPrecision" transform="matrix(1,0,0,1,-1900,-489)" stroke="rgb(245,245,245)">
      <rect x="2016.1995" y="965.6875" clip-path="url(#clipPath2)" width="704.6989" rx="4" ry="4" height="201.7812" stroke="none"/>
      <rect x="2016.1995" y="965.6875" clip-path="url(#clipPath2)" fill="rgb(235,235,235)" width="704.6989" height="38.9219" stroke="none"/>
    </g>
    <g font-size="15px" stroke-linecap="butt" transform="matrix(1,0,0,1,-1900,-489)" text-rendering="geometricPrecision" font-family="sans-serif" shape-rendering="geometricPrecision" stroke-miterlimit="1.45">
      <text x="2329.2434" xml:space="preserve" y="981.6108" clip-path="url(#clipPath2)" stroke="none">Messages:</text>
      <text x="2249.8635" xml:space="preserve" y="999.0718" clip-path="url(#clipPath2)" stroke="none">Child -&gt; Parent Communication</text>
      <rect x="2016.1995" y="965.6875" clip-path="url(#clipPath2)" fill="none" width="704.6989" stroke-dasharray="6,2" rx="4" ry="4" height="201.7812"/>
    </g>
    <g fill="rgb(225,225,225)" text-rendering="geometricPrecision" shape-rendering="geometricPrecision" transform="matrix(1,0,0,1,-1900,-489)" stroke="rgb(225,225,225)">
      <rect x="2031.1995" y="1019.6094" clip-path="url(#clipPath2)" width="674.6989" rx="4" ry="4" height="132.8594" stroke="none"/>
      <rect x="2031.1995" y="1019.6094" clip-path="url(#clipPath2)" fill="rgb(235,235,235)" width="674.6989" height="38.9219" stroke="none"/>
    </g>
    <g font-size="15px" stroke-linecap="butt" transform="matrix(1,0,0,1,-1900,-489)" text-rendering="geometricPrecision" font-family="sans-serif" shape-rendering="geometricPrecision" stroke-miterlimit="1.45">
      <text x="2322.9885" xml:space="preserve" y="1035.5327" clip-path="url(#clipPath2)" stroke="none">Notification:</text>
      <text x="2269.8733" xml:space="preserve" y="1052.9937" clip-path="url(#clipPath2)" stroke="none">Sending info to the parent</text>
      <rect x="2031.1995" y="1019.6094" clip-path="url(#clipPath2)" fill="none" width="674.6989" stroke-dasharray="6,2" rx="4" ry="4" height="132.8594"/>
    </g>
    <g fill="rgb(255,204,0)" text-rendering="geometricPrecision" shape-rendering="geometricPrecision" transform="matrix(1,0,0,1,-1900,-489)" stroke="rgb(255,204,0)">
      <rect x="2637.6816" width="53.2168" height="30" y="1103.5" clip-path="url(#clipPath2)" stroke="none"/>
    </g>
    <g text-rendering="geometricPrecision" stroke-miterlimit="1.45" shape-rendering="geometricPrecision" transform="matrix(1,0,0,1,-1900,-489)" stroke-linecap="butt">
      <rect fill="none" x="2637.6816" width="53.2168" height="30" y="1103.5" clip-path="url(#clipPath2)"/>
      <text x="2644.6816" xml:space="preserve" y="1122.6543" clip-path="url(#clipPath2)" font-family="sans-serif" stroke="none">Parent</text>
    </g>
    <g fill="rgb(255,204,0)" text-rendering="geometricPrecision" shape-rendering="geometricPrecision" transform="matrix(1,0,0,1,-1900,-489)" stroke="rgb(255,204,0)">
      <rect x="2046.1995" width="44.2695" height="30" y="1103.5" clip-path="url(#clipPath2)" stroke="none"/>
    </g>
    <g text-rendering="geometricPrecision" stroke-miterlimit="1.45" shape-rendering="geometricPrecision" transform="matrix(1,0,0,1,-1900,-489)" stroke-linecap="butt">
      <rect fill="none" x="2046.1995" width="44.2695" height="30" y="1103.5" clip-path="url(#clipPath2)"/>
      <text x="2053.1995" xml:space="preserve" y="1122.6543" clip-path="url(#clipPath2)" font-family="sans-serif" stroke="none">Child</text>
    </g>
    <g fill="rgb(255,204,0)" text-rendering="geometricPrecision" shape-rendering="geometricPrecision" transform="matrix(1,0,0,1,-1900,-489)" stroke="rgb(255,204,0)">
      <rect x="2259.876" width="222.248" height="30" y="1103.5" clip-path="url(#clipPath2)" stroke="none"/>
    </g>
    <g text-rendering="geometricPrecision" stroke-miterlimit="1.45" shape-rendering="geometricPrecision" transform="matrix(1,0,0,1,-1900,-489)" stroke-linecap="butt">
      <rect fill="none" x="2259.876" width="222.248" height="30" y="1103.5" clip-path="url(#clipPath2)"/>
      <text x="2266.876" xml:space="preserve" y="1115.6699" clip-path="url(#clipPath2)" font-family="sans-serif" stroke="none">Parent maps message into a value</text>
      <text x="2306.3564" xml:space="preserve" y="1129.6387" clip-path="url(#clipPath2)" font-family="sans-serif" stroke="none">of its own ActionType</text>
      <path fill="none" d="M2090.469 1118.5 L2251.876 1118.5" clip-path="url(#clipPath2)"/>
      <path d="M2259.876 1118.5 L2247.876 1113.5 L2250.876 1118.5 L2247.876 1123.5 Z" clip-path="url(#clipPath2)" stroke="none"/>
      <text x="2138.7244" xml:space="preserve" y="1085.6699" clip-path="url(#clipPath2)" font-family="sans-serif" stroke="none">Notification:</text>
      <text x="2071.655" xml:space="preserve" y="1099.6387" clip-path="url(#clipPath2)" font-family="sans-serif" stroke="none">child "raises" a message to parent</text>
      <path fill="none" d="M2482.124 1118.5 L2629.6816 1118.5" clip-path="url(#clipPath2)"/>
      <path d="M2637.6816 1118.5 L2625.6816 1113.5 L2628.6816 1118.5 L2625.6816 1123.5 Z" clip-path="url(#clipPath2)" stroke="none"/>
      <text x="2444.4673" xml:space="preserve" y="1085.6699" clip-path="url(#clipPath2)" font-family="sans-serif" stroke="none">Parent handles the ActionType's value</text>
      <text x="2465.5845" xml:space="preserve" y="1099.6387" clip-path="url(#clipPath2)" font-family="sans-serif" stroke="none">via the `handleAction` function</text>
    </g>
  </g>
</svg>
