<?xml version="1.0" encoding="UTF-8"?><svg xmlns="http://www.w3.org/2000/svg" xmlns:xlink="http://www.w3.org/1999/xlink" fill-opacity="1" color-rendering="auto" color-interpolation="auto" text-rendering="auto" stroke="black" stroke-linecap="square" width="1450" stroke-miterlimit="10" shape-rendering="auto" stroke-opacity="1" fill="black" stroke-dasharray="none" font-weight="normal" stroke-width="1" height="704" font-family="'Dialog'" font-style="normal" stroke-linejoin="miter" font-size="12px" stroke-dashoffset="0" image-rendering="auto">
  <!--Generated by ySVG 2.5-->
  <defs id="genericDefs"/>
  <g>
    <defs id="defs1">
      <clipPath clipPathUnits="userSpaceOnUse" id="clipPath1">
        <path d="M0 0 L1450 0 L1450 704 L0 704 L0 0 Z"/>
      </clipPath>
      <clipPath clipPathUnits="userSpaceOnUse" id="clipPath2">
        <path d="M615 457 L2065 457 L2065 1161 L615 1161 L615 457 Z"/>
      </clipPath>
    </defs>
    <g fill="white" text-rendering="geometricPrecision" shape-rendering="geometricPrecision" transform="translate(-615,-457)" stroke="white">
      <rect x="615" width="1450" height="704" y="457" clip-path="url(#clipPath2)" stroke="none"/>
    </g>
    <g fill="rgb(245,245,245)" text-rendering="geometricPrecision" shape-rendering="geometricPrecision" transform="matrix(1,0,0,1,-615,-457)" stroke="rgb(245,245,245)">
      <rect x="747.6573" y="472.146" clip-path="url(#clipPath2)" width="1184.3886" rx="4" ry="4" height="260.2391" stroke="none"/>
      <rect x="747.6573" y="472.146" clip-path="url(#clipPath2)" fill="rgb(235,235,235)" width="1184.3886" height="21.4609" stroke="none"/>
    </g>
    <g font-size="15px" stroke-linecap="butt" transform="matrix(1,0,0,1,-615,-457)" text-rendering="geometricPrecision" font-family="sans-serif" shape-rendering="geometricPrecision" stroke-miterlimit="1.45">
      <text x="1278.0791" xml:space="preserve" y="488.0694" clip-path="url(#clipPath2)" stroke="none">Initial Rendering</text>
      <rect x="747.6573" y="472.146" clip-path="url(#clipPath2)" fill="none" width="1184.3886" stroke-dasharray="6,2" rx="4" ry="4" height="260.2391"/>
    </g>
    <g fill="rgb(255,204,0)" text-rendering="geometricPrecision" shape-rendering="geometricPrecision" transform="matrix(1,0,0,1,-615,-457)" stroke="rgb(255,204,0)">
      <rect x="1378.1911" width="264.9746" height="30" y="621.9782" clip-path="url(#clipPath2)" stroke="none"/>
    </g>
    <g text-rendering="geometricPrecision" stroke-miterlimit="1.45" shape-rendering="geometricPrecision" transform="matrix(1,0,0,1,-615,-457)" stroke-linecap="butt">
      <rect fill="none" x="1378.1911" width="264.9746" height="30" y="621.9782" clip-path="url(#clipPath2)"/>
      <text x="1385.1912" xml:space="preserve" y="641.1324" clip-path="url(#clipPath2)" font-family="sans-serif" stroke="none">child-like component receives input value</text>
    </g>
    <g fill="rgb(255,204,0)" text-rendering="geometricPrecision" shape-rendering="geometricPrecision" transform="matrix(1,0,0,1,-615,-457)" stroke="rgb(255,204,0)">
      <rect x="1400.6296" width="220.0977" height="30" y="530.207" clip-path="url(#clipPath2)" stroke="none"/>
    </g>
    <g text-rendering="geometricPrecision" stroke-miterlimit="1.45" shape-rendering="geometricPrecision" transform="matrix(1,0,0,1,-615,-457)" stroke-linecap="butt">
      <rect fill="none" x="1400.6296" width="220.0977" height="30" y="530.207" clip-path="url(#clipPath2)"/>
      <text x="1407.6296" xml:space="preserve" y="549.3613" clip-path="url(#clipPath2)" font-family="sans-serif" stroke="none">child-like component's initial state</text>
    </g>
    <g fill="rgb(255,204,0)" text-rendering="geometricPrecision" shape-rendering="geometricPrecision" transform="matrix(1,0,0,1,-615,-457)" stroke="rgb(255,204,0)">
      <rect x="1702.7402" width="190.4785" height="30" y="530.207" clip-path="url(#clipPath2)" stroke="none"/>
    </g>
    <g text-rendering="geometricPrecision" stroke-miterlimit="1.45" shape-rendering="geometricPrecision" transform="matrix(1,0,0,1,-615,-457)" stroke-linecap="butt">
      <rect fill="none" x="1702.7402" width="190.4785" height="30" y="530.207" clip-path="url(#clipPath2)"/>
      <text x="1709.7402" xml:space="preserve" y="549.3613" clip-path="url(#clipPath2)" font-family="sans-serif" stroke="none">component's initial rendering</text>
    </g>
    <g fill="rgb(255,204,0)" text-rendering="geometricPrecision" shape-rendering="geometricPrecision" transform="matrix(1,0,0,1,-615,-457)" stroke="rgb(255,204,0)">
      <rect x="1678.9131" width="238.1328" height="42.414" y="615.7712" clip-path="url(#clipPath2)" stroke="none"/>
    </g>
    <g text-rendering="geometricPrecision" stroke-miterlimit="1.45" shape-rendering="geometricPrecision" transform="matrix(1,0,0,1,-615,-457)" stroke-linecap="butt">
      <rect fill="none" x="1678.9131" width="238.1328" height="42.414" y="615.7712" clip-path="url(#clipPath2)"/>
      <text x="1685.9131" xml:space="preserve" y="634.1481" clip-path="url(#clipPath2)" font-family="sans-serif" stroke="none">If compent has child components, </text>
      <text x="1685.9131" xml:space="preserve" y="648.1168" clip-path="url(#clipPath2)" font-family="sans-serif" stroke="none">it passes an Input value to each child</text>
    </g>
    <g fill="rgb(255,204,0)" text-rendering="geometricPrecision" shape-rendering="geometricPrecision" transform="matrix(1,0,0,1,-615,-457)" stroke="rgb(255,204,0)">
      <rect x="769.8497" width="205.877" height="30" y="530.207" clip-path="url(#clipPath2)" stroke="none"/>
    </g>
    <g text-rendering="geometricPrecision" stroke-miterlimit="1.45" shape-rendering="geometricPrecision" transform="matrix(1,0,0,1,-615,-457)" stroke-linecap="butt">
      <rect fill="none" x="769.8497" width="205.877" height="30" y="530.207" clip-path="url(#clipPath2)"/>
      <text x="776.8497" xml:space="preserve" y="549.3613" clip-path="url(#clipPath2)" font-family="sans-serif" stroke="none">parent component's initial state</text>
    </g>
    <g fill="rgb(255,204,0)" text-rendering="geometricPrecision" shape-rendering="geometricPrecision" transform="matrix(1,0,0,1,-615,-457)" stroke="rgb(255,204,0)">
      <rect x="1043.1439" width="233.8906" height="30" y="530.207" clip-path="url(#clipPath2)" stroke="none"/>
    </g>
    <g text-rendering="geometricPrecision" stroke-miterlimit="1.45" shape-rendering="geometricPrecision" transform="matrix(1,0,0,1,-615,-457)" stroke-linecap="butt">
      <rect fill="none" x="1043.1439" width="233.8906" height="30" y="530.207" clip-path="url(#clipPath2)"/>
      <text x="1050.1439" xml:space="preserve" y="549.3613" clip-path="url(#clipPath2)" font-family="sans-serif" stroke="none">parent component's initial rendering</text>
    </g>
    <g fill="rgb(255,204,0)" text-rendering="geometricPrecision" shape-rendering="geometricPrecision" transform="matrix(1,0,0,1,-615,-457)" stroke="rgb(255,204,0)">
      <rect x="1065.5912" width="188.9961" height="42.414" y="615.7712" clip-path="url(#clipPath2)" stroke="none"/>
    </g>
    <g text-rendering="geometricPrecision" stroke-miterlimit="1.45" shape-rendering="geometricPrecision" transform="matrix(1,0,0,1,-615,-457)" stroke-linecap="butt">
      <rect fill="none" x="1065.5912" width="188.9961" height="42.414" y="615.7712" clip-path="url(#clipPath2)"/>
      <text x="1072.5912" xml:space="preserve" y="634.1481" clip-path="url(#clipPath2)" font-family="sans-serif" stroke="none">parent component passes an</text>
      <text x="1072.5912" xml:space="preserve" y="648.1168" clip-path="url(#clipPath2)" font-family="sans-serif" stroke="none">input value into each child</text>
      <path fill="none" d="M1510.6785 621.9781 L1510.6785 568.207" clip-path="url(#clipPath2)"/>
      <path d="M1510.6785 560.207 L1505.6785 572.207 L1510.6785 569.207 L1515.6785 572.207 Z" clip-path="url(#clipPath2)" stroke="none"/>
      <text x="1549.5925" xml:space="preserve" y="589.4278" clip-path="url(#clipPath2)" font-family="sans-serif" stroke="none">which is </text>
      <text x="1537.4138" xml:space="preserve" y="603.3965" clip-path="url(#clipPath2)" font-family="sans-serif" stroke="none">converted to</text>
      <path fill="none" d="M1620.7273 545.207 L1694.7402 545.207" clip-path="url(#clipPath2)"/>
      <path d="M1702.7402 545.207 L1690.7402 540.207 L1693.7402 545.207 L1690.7402 550.207 Z" clip-path="url(#clipPath2)" stroke="none"/>
      <text x="1621.6263" xml:space="preserve" y="519.3613" clip-path="url(#clipPath2)" font-family="sans-serif" stroke="none">which causes</text>
    </g>
    <g stroke-linecap="round" transform="matrix(1,0,0,1,-615,-457)" stroke-dashoffset="2" text-rendering="geometricPrecision" shape-rendering="geometricPrecision" stroke-dasharray="0,8" stroke-width="2" stroke-miterlimit="1.45">
      <path fill="none" d="M1797.9795 560.207 L1797.9795 606.7712" clip-path="url(#clipPath2)"/>
      <path d="M1797.9795 615.7712 L1803.6045 602.2712 L1797.9795 605.6462 L1792.3545 602.2712 Z" clip-path="url(#clipPath2)" stroke="none"/>
    </g>
    <g text-rendering="geometricPrecision" stroke-miterlimit="1.45" shape-rendering="geometricPrecision" transform="matrix(1,0,0,1,-615,-457)" stroke-linecap="butt">
      <path fill="none" d="M1797.9795 658.1851 L1797.9795 698.3034 L1510.6785 698.3034 L1510.6785 659.9781" clip-path="url(#clipPath2)"/>
      <path d="M1510.6785 651.9781 L1505.6785 663.9781 L1510.6785 660.9781 L1515.6785 663.9781 Z" clip-path="url(#clipPath2)" stroke="none"/>
      <path fill="none" d="M975.7266 545.207 L1035.1439 545.207" clip-path="url(#clipPath2)"/>
      <path d="M1043.1439 545.207 L1031.1439 540.207 L1034.1439 545.207 L1031.1439 550.207 Z" clip-path="url(#clipPath2)" stroke="none"/>
      <text x="969.3278" xml:space="preserve" y="519.3613" clip-path="url(#clipPath2)" font-family="sans-serif" stroke="none">which causes</text>
      <path fill="none" d="M1160.0892 560.207 L1160.0892 607.7712" clip-path="url(#clipPath2)"/>
      <path d="M1160.0892 615.7712 L1165.0892 603.7712 L1160.0892 606.7712 L1155.0892 603.7712 Z" clip-path="url(#clipPath2)" stroke="none"/>
      <path fill="none" d="M1254.5873 636.9781 L1370.1912 636.9781" clip-path="url(#clipPath2)"/>
      <path d="M1378.1912 636.9781 L1366.1912 631.9781 L1369.1912 636.9781 L1366.1912 641.9781 Z" clip-path="url(#clipPath2)" stroke="none"/>
    </g>
    <g fill="rgb(245,245,245)" text-rendering="geometricPrecision" shape-rendering="geometricPrecision" transform="matrix(1,0,0,1,-615,-457)" stroke="rgb(245,245,245)">
      <rect x="630.59" y="762.3851" clip-path="url(#clipPath2)" width="1418.5231" rx="4" ry="4" height="383.426" stroke="none"/>
      <rect x="630.59" y="762.3851" clip-path="url(#clipPath2)" fill="rgb(235,235,235)" width="1418.5231" height="21.4609" stroke="none"/>
    </g>
    <g font-size="15px" stroke-linecap="butt" transform="matrix(1,0,0,1,-615,-457)" text-rendering="geometricPrecision" font-family="sans-serif" shape-rendering="geometricPrecision" stroke-miterlimit="1.45">
      <text x="1235.6133" xml:space="preserve" y="778.3085" clip-path="url(#clipPath2)" stroke="none">Every Rendering Thereafter</text>
      <rect x="630.59" y="762.3851" clip-path="url(#clipPath2)" fill="none" width="1418.5231" stroke-dasharray="6,2" rx="4" ry="4" height="383.426"/>
    </g>
    <g fill="rgb(255,204,0)" text-rendering="geometricPrecision" shape-rendering="geometricPrecision" transform="matrix(1,0,0,1,-615,-457)" stroke="rgb(255,204,0)">
      <rect x="1493.0748" width="143.334" height="30" y="911.4173" clip-path="url(#clipPath2)" stroke="none"/>
    </g>
    <g text-rendering="geometricPrecision" stroke-miterlimit="1.45" shape-rendering="geometricPrecision" transform="matrix(1,0,0,1,-615,-457)" stroke-linecap="butt">
      <rect fill="none" x="1493.0748" width="143.334" height="30" y="911.4173" clip-path="url(#clipPath2)"/>
      <text x="1500.0748" xml:space="preserve" y="923.5872" clip-path="url(#clipPath2)" font-family="sans-serif" stroke="none">child-like component </text>
      <text x="1503.9215" xml:space="preserve" y="937.556" clip-path="url(#clipPath2)" font-family="sans-serif" stroke="none">receives input value</text>
    </g>
    <g fill="rgb(255,204,0)" text-rendering="geometricPrecision" shape-rendering="geometricPrecision" transform="matrix(1,0,0,1,-615,-457)" stroke="rgb(255,204,0)">
      <rect x="1765.2411" width="173.6035" height="30" y="1026.4111" clip-path="url(#clipPath2)" stroke="none"/>
    </g>
    <g text-rendering="geometricPrecision" stroke-miterlimit="1.45" shape-rendering="geometricPrecision" transform="matrix(1,0,0,1,-615,-457)" stroke-linecap="butt">
      <rect fill="none" x="1765.2411" width="173.6035" height="30" y="1026.4111" clip-path="url(#clipPath2)"/>
      <text x="1772.2411" xml:space="preserve" y="1045.5654" clip-path="url(#clipPath2)" font-family="sans-serif" stroke="none">component handles action</text>
    </g>
    <g fill="rgb(255,204,0)" text-rendering="geometricPrecision" shape-rendering="geometricPrecision" transform="matrix(1,0,0,1,-615,-457)" stroke="rgb(255,204,0)">
      <path d="M1697.9725 918.8173 L1852.0428 856.4103 L2006.1129 918.8173 L1852.0428 981.2242 Z" fill-rule="evenodd" clip-path="url(#clipPath2)" stroke="none"/>
    </g>
    <g text-rendering="geometricPrecision" stroke-miterlimit="1.45" shape-rendering="geometricPrecision" transform="matrix(1,0,0,1,-615,-457)" stroke-linecap="butt">
      <path fill="none" d="M1697.9725 918.8173 L1852.0428 856.4103 L2006.1129 918.8173 L1852.0428 981.2242 Z" fill-rule="evenodd" clip-path="url(#clipPath2)"/>
      <text x="1794.8407" xml:space="preserve" y="895.0341" clip-path="url(#clipPath2)" font-family="sans-serif" stroke="none">Did action handler </text>
      <text x="1776.9725" xml:space="preserve" y="909.0028" clip-path="url(#clipPath2)" font-family="sans-serif" stroke="none">update componet's state</text>
      <text x="1838.83" xml:space="preserve" y="922.9716" clip-path="url(#clipPath2)" font-family="sans-serif" stroke="none">AND</text>
      <text x="1799.9882" xml:space="preserve" y="936.9403" clip-path="url(#clipPath2)" font-family="sans-serif" stroke="none">does component </text>
      <text x="1779.0087" xml:space="preserve" y="950.9091" clip-path="url(#clipPath2)" font-family="sans-serif" stroke="none">have child components?</text>
    </g>
    <g fill="rgb(255,204,0)" text-rendering="geometricPrecision" shape-rendering="geometricPrecision" transform="matrix(1,0,0,1,-615,-457)" stroke="rgb(255,204,0)">
      <rect x="702.3556" width="127.2441" height="36.4" y="908.2173" clip-path="url(#clipPath2)" stroke="none"/>
    </g>
    <g text-rendering="geometricPrecision" stroke-miterlimit="1.45" shape-rendering="geometricPrecision" transform="matrix(1,0,0,1,-615,-457)" stroke-linecap="butt">
      <rect fill="none" x="702.3556" width="127.2441" height="36.4" y="908.2173" clip-path="url(#clipPath2)"/>
      <text x="709.3557" xml:space="preserve" y="923.5872" clip-path="url(#clipPath2)" font-family="sans-serif" stroke="none">parent componet's</text>
      <text x="712.1623" xml:space="preserve" y="937.556" clip-path="url(#clipPath2)" font-family="sans-serif" stroke="none">state get updated</text>
    </g>
    <g fill="rgb(255,204,0)" text-rendering="geometricPrecision" shape-rendering="geometricPrecision" transform="matrix(1,0,0,1,-615,-457)" stroke="rgb(255,204,0)">
      <rect x="645.59" width="240.7754" height="30" y="1018.8242" clip-path="url(#clipPath2)" stroke="none"/>
    </g>
    <g text-rendering="geometricPrecision" stroke-miterlimit="1.45" shape-rendering="geometricPrecision" transform="matrix(1,0,0,1,-615,-457)" stroke-linecap="butt">
      <rect fill="none" x="645.59" width="240.7754" height="30" y="1018.8242" clip-path="url(#clipPath2)"/>
      <text x="652.59" xml:space="preserve" y="1037.9785" clip-path="url(#clipPath2)" font-family="sans-serif" stroke="none">parent component to re-renders itself</text>
    </g>
    <g fill="rgb(255,204,0)" text-rendering="geometricPrecision" shape-rendering="geometricPrecision" transform="matrix(1,0,0,1,-615,-457)" stroke="rgb(255,204,0)">
      <path d="M928.9599 1033.8242 L1034.7504 979.8175 L1140.5399 1033.8242 L1034.7504 1087.8313 Z" fill-rule="evenodd" clip-path="url(#clipPath2)" stroke="none"/>
    </g>
    <g text-rendering="geometricPrecision" stroke-miterlimit="1.45" shape-rendering="geometricPrecision" transform="matrix(1,0,0,1,-615,-457)" stroke-linecap="butt">
      <path fill="none" d="M928.9599 1033.8242 L1034.7504 979.8175 L1140.5399 1033.8242 L1034.7504 1087.8313 Z" fill-rule="evenodd" clip-path="url(#clipPath2)"/>
      <text x="967.1619" xml:space="preserve" y="1030.9941" clip-path="url(#clipPath2)" font-family="sans-serif" stroke="none">Does component have</text>
      <text x="967.1619" xml:space="preserve" y="1044.9629" clip-path="url(#clipPath2)" font-family="sans-serif" stroke="none">child components?</text>
    </g>
    <g fill="rgb(255,204,0)" text-rendering="geometricPrecision" shape-rendering="geometricPrecision" transform="matrix(1,0,0,1,-615,-457)" stroke="rgb(255,204,0)">
      <path d="M1170.5377 926.4172 L1262.796 873.0173 L1355.0544 926.4172 L1262.796 979.8172 Z" fill-rule="evenodd" clip-path="url(#clipPath2)" stroke="none"/>
    </g>
    <g text-rendering="geometricPrecision" stroke-miterlimit="1.45" shape-rendering="geometricPrecision" transform="matrix(1,0,0,1,-615,-457)" stroke-linecap="butt">
      <path fill="none" d="M1170.5377 926.4172 L1262.796 873.0173 L1355.0544 926.4172 L1262.796 979.8172 Z" fill-rule="evenodd" clip-path="url(#clipPath2)"/>
      <text x="1213.9377" xml:space="preserve" y="916.6028" clip-path="url(#clipPath2)" font-family="sans-serif" stroke="none">Has input value </text>
      <text x="1217.5061" xml:space="preserve" y="930.5716" clip-path="url(#clipPath2)" font-family="sans-serif" stroke="none">changed since </text>
      <text x="1233.3264" xml:space="preserve" y="944.5403" clip-path="url(#clipPath2)" font-family="sans-serif" stroke="none">last time?</text>
    </g>
    <g fill="rgb(255,204,0)" text-rendering="geometricPrecision" shape-rendering="geometricPrecision" transform="matrix(1,0,0,1,-615,-457)" stroke="rgb(255,204,0)">
      <rect x="1196.549" width="132.4941" height="30" y="1026.4111" clip-path="url(#clipPath2)" stroke="none"/>
    </g>
    <g text-rendering="geometricPrecision" stroke-miterlimit="1.45" shape-rendering="geometricPrecision" transform="matrix(1,0,0,1,-615,-457)" stroke-linecap="butt">
      <rect fill="none" x="1196.549" width="132.4941" height="30" y="1026.4111" clip-path="url(#clipPath2)"/>
      <text x="1203.5491" xml:space="preserve" y="1045.5654" clip-path="url(#clipPath2)" font-family="sans-serif" stroke="none">Nothing else occurs</text>
    </g>
    <g fill="rgb(255,204,0)" text-rendering="geometricPrecision" shape-rendering="geometricPrecision" transform="matrix(1,0,0,1,-615,-457)" stroke="rgb(255,204,0)">
      <path d="M1475.5831 1041.4111 L1564.7418 995.2111 L1653.9004 1041.4111 L1564.7418 1087.6111 Z" fill-rule="evenodd" clip-path="url(#clipPath2)" stroke="none"/>
    </g>
    <g text-rendering="geometricPrecision" stroke-miterlimit="1.45" shape-rendering="geometricPrecision" transform="matrix(1,0,0,1,-615,-457)" stroke-linecap="butt">
      <path fill="none" d="M1475.5831 1041.4111 L1564.7418 995.2111 L1653.9004 1041.4111 L1564.7418 1087.6111 Z" fill-rule="evenodd" clip-path="url(#clipPath2)"/>
      <text x="1494.1832" xml:space="preserve" y="1045.5654" clip-path="url(#clipPath2)" font-family="sans-serif" stroke="none">Maybe ChildActionType</text>
    </g>
    <g fill="rgb(255,204,0)" text-rendering="geometricPrecision" shape-rendering="geometricPrecision" transform="matrix(1,0,0,1,-615,-457)" stroke="rgb(255,204,0)">
      <rect x="944.3822" width="181.3555" height="30" y="911.4173" clip-path="url(#clipPath2)" stroke="none"/>
    </g>
    <g text-rendering="geometricPrecision" stroke-miterlimit="1.45" shape-rendering="geometricPrecision" transform="matrix(1,0,0,1,-615,-457)" stroke-linecap="butt">
      <rect fill="none" x="944.3822" width="181.3555" height="30" y="911.4173" clip-path="url(#clipPath2)"/>
      <text x="955.0414" xml:space="preserve" y="923.5872" clip-path="url(#clipPath2)" font-family="sans-serif" stroke="none">parent component passes </text>
      <text x="951.3822" xml:space="preserve" y="937.556" clip-path="url(#clipPath2)" font-family="sans-serif" stroke="none">an Input value to each child</text>
      <path fill="none" d="M1852.0428 1026.4111 L1852.0428 989.2039" clip-path="url(#clipPath2)"/>
      <path d="M1852.0428 981.2039 L1847.0428 993.2039 L1852.0428 990.2039 L1857.0428 993.2039 Z" clip-path="url(#clipPath2)" stroke="none"/>
      <path fill="none" d="M765.9777 944.6172 L765.9777 1010.8242" clip-path="url(#clipPath2)"/>
      <path d="M765.9777 1018.8242 L770.9777 1006.8242 L765.9777 1009.8242 L760.9777 1006.8242 Z" clip-path="url(#clipPath2)" stroke="none"/>
      <text x="783.0703" xml:space="preserve" y="979.8893" clip-path="url(#clipPath2)" font-family="sans-serif" stroke="none">which causes</text>
      <path fill="none" d="M886.3654 1033.8242 L920.9318 1033.8242" clip-path="url(#clipPath2)"/>
      <path d="M928.9318 1033.8242 L916.9318 1028.8242 L919.9318 1033.8242 L916.9318 1038.8242 Z" clip-path="url(#clipPath2)" stroke="none"/>
      <path fill="none" d="M1355.0532 926.4173 L1485.0748 926.4173" clip-path="url(#clipPath2)"/>
      <path d="M1493.0748 926.4173 L1481.0748 921.4173 L1484.0748 926.4173 L1481.0748 931.4173 Z" clip-path="url(#clipPath2)" stroke="none"/>
      <text x="1394.8723" xml:space="preserve" y="900.5716" clip-path="url(#clipPath2)" font-family="sans-serif" stroke="none">Yes</text>
      <path fill="none" d="M1262.7961 979.8434 L1262.7961 1018.4111" clip-path="url(#clipPath2)"/>
      <path d="M1262.7961 1026.4111 L1267.7961 1014.4111 L1262.7961 1017.4111 L1257.7961 1014.4111 Z" clip-path="url(#clipPath2)" stroke="none"/>
      <text x="1284.637" xml:space="preserve" y="1007.2685" clip-path="url(#clipPath2)" font-family="sans-serif" stroke="none">No</text>
      <path fill="none" d="M2006.1351 918.8173 L2036.8634 918.8173 L2036.8634 1117.0391 L1262.7961 1117.0391 L1262.7961 1064.4111" clip-path="url(#clipPath2)"/>
      <path d="M1262.7961 1056.4111 L1257.7961 1068.4111 L1262.7961 1065.4111 L1267.7961 1068.4111 Z" clip-path="url(#clipPath2)" stroke="none"/>
      <text x="2013.1132" xml:space="preserve" y="892.9716" clip-path="url(#clipPath2)" font-family="sans-serif" stroke="none">No</text>
      <path fill="none" d="M1134.0469 1037.1278 L1188.5535 1038.9412" clip-path="url(#clipPath2)"/>
      <path d="M1196.5491 1039.2072 L1184.7219 1033.8109 L1187.5541 1038.908 L1184.3894 1043.8054 Z" clip-path="url(#clipPath2)" stroke="none"/>
      <text x="1162.6552" xml:space="preserve" y="1014.2388" clip-path="url(#clipPath2)" font-family="sans-serif" stroke="none">No</text>
      <path fill="none" d="M1564.7418 941.4173 L1564.7418 987.1737" clip-path="url(#clipPath2)"/>
      <path d="M1564.7418 995.1737 L1569.7418 983.1737 L1564.7418 986.1737 L1559.7418 983.1737 Z" clip-path="url(#clipPath2)" stroke="none"/>
      <text x="1595.0559" xml:space="preserve" y="965.4841" clip-path="url(#clipPath2)" font-family="sans-serif" stroke="none">which is </text>
      <text x="1582.8772" xml:space="preserve" y="979.4529" clip-path="url(#clipPath2)" font-family="sans-serif" stroke="none">converted to</text>
      <path fill="none" d="M1475.5808 1041.4111 L1337.0432 1041.4111" clip-path="url(#clipPath2)"/>
      <path d="M1329.0432 1041.4111 L1341.0432 1046.4111 L1338.0432 1041.4111 L1341.0432 1036.4111 Z" clip-path="url(#clipPath2)" stroke="none"/>
      <text x="1421.3977" xml:space="preserve" y="1015.5654" clip-path="url(#clipPath2)" font-family="sans-serif" stroke="none">Nothing</text>
      <path fill="none" d="M1653.9271 1041.4111 L1757.2411 1041.4111" clip-path="url(#clipPath2)"/>
      <path d="M1765.2411 1041.4111 L1753.2411 1036.4111 L1756.2411 1041.4111 L1753.2411 1046.4111 Z" clip-path="url(#clipPath2)" stroke="none"/>
      <text x="1645.6392" xml:space="preserve" y="1015.5654" clip-path="url(#clipPath2)" font-family="sans-serif" stroke="none">Just ChildActionValue</text>
      <path fill="none" d="M1034.9055 979.8848 L1034.9935 949.4172" clip-path="url(#clipPath2)"/>
      <path d="M1035.0166 941.4173 L1029.9821 953.4028 L1034.9906 950.4172 L1039.9819 953.4316 Z" clip-path="url(#clipPath2)" stroke="none"/>
      <text x="1054.4789" xml:space="preserve" y="964.7715" clip-path="url(#clipPath2)" font-family="sans-serif" stroke="none">Yes</text>
      <path fill="none" d="M1852.0428 856.4372 L1852.0428 829.0391 L1035.0599 829.0391 L1035.0599 903.4173" clip-path="url(#clipPath2)"/>
      <path d="M1035.0599 911.4173 L1040.0599 899.4173 L1035.0599 902.4173 L1030.0599 899.4173 Z" clip-path="url(#clipPath2)" stroke="none"/>
      <text x="1871.5604" xml:space="preserve" y="840.0362" clip-path="url(#clipPath2)" font-family="sans-serif" stroke="none">Yes</text>
      <path fill="none" d="M1125.7377 926.4173 L1162.5427 926.4173" clip-path="url(#clipPath2)"/>
      <path d="M1170.5427 926.4173 L1158.5427 921.4173 L1161.5427 926.4173 L1158.5427 931.4173 Z" clip-path="url(#clipPath2)" stroke="none"/>
    </g>
  </g>
</svg>
