<?xml version="1.0" encoding="UTF-8"?><svg xmlns="http://www.w3.org/2000/svg" xmlns:xlink="http://www.w3.org/1999/xlink" fill-opacity="1" color-rendering="auto" color-interpolation="auto" text-rendering="auto" stroke="black" stroke-linecap="square" width="2063" stroke-miterlimit="10" shape-rendering="auto" stroke-opacity="1" fill="black" stroke-dasharray="none" font-weight="normal" stroke-width="1" height="252" font-family="'Dialog'" font-style="normal" stroke-linejoin="miter" font-size="12px" stroke-dashoffset="0" image-rendering="auto">
  <!--Generated by ySVG 2.5-->
  <defs id="genericDefs"/>
  <g>
    <defs id="defs1">
      <clipPath clipPathUnits="userSpaceOnUse" id="clipPath1">
        <path d="M0 0 L2063 0 L2063 252 L0 252 L0 0 Z"/>
      </clipPath>
      <clipPath clipPathUnits="userSpaceOnUse" id="clipPath2">
        <path d="M1522 445 L3585 445 L3585 697 L1522 697 L1522 445 Z"/>
      </clipPath>
    </defs>
    <g fill="white" text-rendering="geometricPrecision" shape-rendering="geometricPrecision" transform="translate(-1522,-445)" stroke="white">
      <rect x="1522" width="2063" height="252" y="445" clip-path="url(#clipPath2)" stroke="none"/>
    </g>
    <g fill="rgb(255,204,0)" text-rendering="geometricPrecision" shape-rendering="geometricPrecision" transform="matrix(1,0,0,1,-1522,-445)" stroke="rgb(255,204,0)">
      <rect x="1537.9675" width="181.8945" height="30" y="551" clip-path="url(#clipPath2)" stroke="none"/>
    </g>
    <g text-rendering="geometricPrecision" stroke-miterlimit="1.45" shape-rendering="geometricPrecision" transform="matrix(1,0,0,1,-1522,-445)" stroke-linecap="butt">
      <rect fill="none" x="1537.9675" width="181.8945" height="30" y="551" clip-path="url(#clipPath2)"/>
      <text x="1544.9674" xml:space="preserve" y="570.1543" clip-path="url(#clipPath2)" font-family="sans-serif" stroke="none">component's initial state (s)</text>
    </g>
    <g fill="rgb(255,204,0)" text-rendering="geometricPrecision" shape-rendering="geometricPrecision" transform="matrix(1,0,0,1,-1522,-445)" stroke="rgb(255,204,0)">
      <rect x="1791.8031" width="190.4785" height="30" y="551" clip-path="url(#clipPath2)" stroke="none"/>
    </g>
    <g text-rendering="geometricPrecision" stroke-miterlimit="1.45" shape-rendering="geometricPrecision" transform="matrix(1,0,0,1,-1522,-445)" stroke-linecap="butt">
      <rect fill="none" x="1791.8031" width="190.4785" height="30" y="551" clip-path="url(#clipPath2)"/>
      <text x="1798.8031" xml:space="preserve" y="570.1543" clip-path="url(#clipPath2)" font-family="sans-serif" stroke="none">component's initial rendering</text>
    </g>
    <g fill="rgb(255,204,0)" text-rendering="geometricPrecision" shape-rendering="geometricPrecision" transform="matrix(1,0,0,1,-1522,-445)" stroke="rgb(255,204,0)">
      <rect x="2030.9171" width="181.7188" height="30" y="551.1018" clip-path="url(#clipPath2)" stroke="none"/>
    </g>
    <g text-rendering="geometricPrecision" stroke-miterlimit="1.45" shape-rendering="geometricPrecision" transform="matrix(1,0,0,1,-1522,-445)" stroke-linecap="butt">
      <rect fill="none" x="2030.9171" width="181.7188" height="30" y="551.1018" clip-path="url(#clipPath2)"/>
      <text x="2037.9171" xml:space="preserve" y="570.2561" clip-path="url(#clipPath2)" font-family="sans-serif" stroke="none">component waits for events</text>
    </g>
    <g fill="rgb(255,204,0)" text-rendering="geometricPrecision" shape-rendering="geometricPrecision" transform="matrix(1,0,0,1,-1522,-445)" stroke="rgb(255,204,0)">
      <rect x="2261.2713" width="209.2461" height="30" y="551" clip-path="url(#clipPath2)" stroke="none"/>
    </g>
    <g text-rendering="geometricPrecision" stroke-miterlimit="1.45" shape-rendering="geometricPrecision" transform="matrix(1,0,0,1,-1522,-445)" stroke-linecap="butt">
      <rect fill="none" x="2261.2713" width="209.2461" height="30" y="551" clip-path="url(#clipPath2)"/>
      <text x="2268.2712" xml:space="preserve" y="570.1543" clip-path="url(#clipPath2)" font-family="sans-serif" stroke="none">event on component is detected</text>
    </g>
    <g fill="rgb(255,204,0)" text-rendering="geometricPrecision" shape-rendering="geometricPrecision" transform="matrix(1,0,0,1,-1522,-445)" stroke="rgb(255,204,0)">
      <rect x="2657.9826" width="128.375" height="30" y="651.1402" clip-path="url(#clipPath2)" stroke="none"/>
    </g>
    <g text-rendering="geometricPrecision" stroke-miterlimit="1.45" shape-rendering="geometricPrecision" transform="matrix(1,0,0,1,-1522,-445)" stroke-linecap="butt">
      <rect fill="none" x="2657.9826" width="128.375" height="30" y="651.1402" clip-path="url(#clipPath2)"/>
      <text x="2664.9827" xml:space="preserve" y="670.2946" clip-path="url(#clipPath2)" font-family="sans-serif" stroke="none">which gets ignored</text>
    </g>
    <g fill="rgb(255,204,0)" text-rendering="geometricPrecision" shape-rendering="geometricPrecision" transform="matrix(1,0,0,1,-1522,-445)" stroke="rgb(255,204,0)">
      <path d="M2639.7197 566 L2722.1702 524.0405 L2804.6204 566 L2722.1702 607.9595 Z" fill-rule="evenodd" clip-path="url(#clipPath2)" stroke="none"/>
    </g>
    <g text-rendering="geometricPrecision" stroke-miterlimit="1.45" shape-rendering="geometricPrecision" transform="matrix(1,0,0,1,-1522,-445)" stroke-linecap="butt">
      <path fill="none" d="M2639.7197 566 L2722.1702 524.0405 L2804.6204 566 L2722.1702 607.9595 Z" fill-rule="evenodd" clip-path="url(#clipPath2)"/>
      <text x="2662.0647" xml:space="preserve" y="570.1543" clip-path="url(#clipPath2)" font-family="sans-serif" stroke="none">Maybe (ActionType)</text>
    </g>
    <g fill="rgb(255,204,0)" text-rendering="geometricPrecision" shape-rendering="geometricPrecision" transform="matrix(1,0,0,1,-1522,-445)" stroke="rgb(255,204,0)">
      <rect x="3458.3705" width="104.7148" height="30" y="551" clip-path="url(#clipPath2)" stroke="none"/>
    </g>
    <g text-rendering="geometricPrecision" stroke-miterlimit="1.45" shape-rendering="geometricPrecision" transform="matrix(1,0,0,1,-1522,-445)" stroke-linecap="butt">
      <rect fill="none" x="3458.3705" width="104.7148" height="30" y="551" clip-path="url(#clipPath2)"/>
      <text x="3465.3706" xml:space="preserve" y="570.1543" clip-path="url(#clipPath2)" font-family="sans-serif" stroke="none">re-render state</text>
    </g>
    <g fill="rgb(255,204,0)" text-rendering="geometricPrecision" shape-rendering="geometricPrecision" transform="matrix(1,0,0,1,-1522,-445)" stroke="rgb(255,204,0)">
      <rect x="3207.1454" width="130.5254" height="30" y="551" clip-path="url(#clipPath2)" stroke="none"/>
    </g>
    <g text-rendering="geometricPrecision" stroke-miterlimit="1.45" shape-rendering="geometricPrecision" transform="matrix(1,0,0,1,-1522,-445)" stroke-linecap="butt">
      <rect fill="none" x="3207.1454" width="130.5254" height="30" y="551" clip-path="url(#clipPath2)"/>
      <text x="3214.1455" xml:space="preserve" y="570.1543" clip-path="url(#clipPath2)" font-family="sans-serif" stroke="none">state gets modified</text>
    </g>
    <g fill="rgb(255,204,0)" text-rendering="geometricPrecision" shape-rendering="geometricPrecision" transform="matrix(1,0,0,1,-1522,-445)" stroke="rgb(255,204,0)">
      <rect x="2943.0277" width="202.9004" height="30" y="551" clip-path="url(#clipPath2)" stroke="none"/>
    </g>
    <g text-rendering="geometricPrecision" stroke-miterlimit="1.45" shape-rendering="geometricPrecision" transform="matrix(1,0,0,1,-1522,-445)" stroke-linecap="butt">
      <rect fill="none" x="2943.0277" width="202.9004" height="30" y="551" clip-path="url(#clipPath2)"/>
      <text x="2949.1692" xml:space="preserve" y="570.1543" clip-path="url(#clipPath2)" font-family="sans-serif" stroke="none">call `handleAction ActionValue`</text>
      <path fill="none" d="M1719.8619 566 L1783.8031 566" clip-path="url(#clipPath2)"/>
      <path d="M1791.8031 566 L1779.8031 561 L1782.8031 566 L1779.8031 571 Z" clip-path="url(#clipPath2)" stroke="none"/>
      <text x="1715.7251" xml:space="preserve" y="540.1543" clip-path="url(#clipPath2)" font-family="sans-serif" stroke="none">which causes</text>
      <path fill="none" d="M1982.2816 566.0413 L2022.9171 566.0589" clip-path="url(#clipPath2)"/>
      <path d="M2030.9171 566.0624 L2018.9193 561.0572 L2021.9171 566.0585 L2018.9149 571.0571 Z" clip-path="url(#clipPath2)" stroke="none"/>
    </g>
    <g stroke-linecap="round" transform="matrix(1,0,0,1,-1522,-445)" fill="red" text-rendering="geometricPrecision" shape-rendering="geometricPrecision" stroke-dasharray="4,3,0,3" stroke="red" stroke-miterlimit="1.45">
      <path fill="none" d="M2212.6357 566.0639 L2253.2712 566.0469" clip-path="url(#clipPath2)"/>
      <path d="M2261.2712 566.0436 L2249.2693 561.0486 L2252.2712 566.0474 L2249.2732 571.0486 Z" clip-path="url(#clipPath2)" stroke="none"/>
    </g>
    <g text-rendering="geometricPrecision" stroke-miterlimit="1.45" shape-rendering="geometricPrecision" transform="matrix(1,0,0,1,-1522,-445)" stroke-linecap="butt">
      <path fill="none" d="M2470.5173 566 L2631.75 566" clip-path="url(#clipPath2)"/>
      <path d="M2639.75 566 L2627.75 561 L2630.75 566 L2627.75 571 Z" clip-path="url(#clipPath2)" stroke="none"/>
      <text x="2483.9434" xml:space="preserve" y="546.4043" clip-path="url(#clipPath2)" font-family="sans-serif" stroke="none">which gets mapped to </text>
      <path fill="none" d="M2722.1702 608.0022 L2722.1702 643.1403" clip-path="url(#clipPath2)"/>
      <path d="M2722.1702 651.1403 L2727.1702 639.1403 L2722.1702 642.1403 L2717.1702 639.1403 Z" clip-path="url(#clipPath2)" stroke="none"/>
      <text x="2728.5774" xml:space="preserve" y="633.7042" clip-path="url(#clipPath2)" font-family="sans-serif" stroke="none">Nothing</text>
      <path fill="none" d="M3510.728 551 L3510.728 460.3963 L2121.7764 460.3963 L2121.7764 543.1018" clip-path="url(#clipPath2)"/>
      <path d="M2121.7764 551.1018 L2126.7764 539.1018 L2121.7764 542.1018 L2116.7764 539.1018 Z" clip-path="url(#clipPath2)" stroke="none"/>
      <text x="3513.8833" xml:space="preserve" y="502.8603" clip-path="url(#clipPath2)" font-family="sans-serif" stroke="none">and then</text>
      <path fill="none" stroke-dasharray="6,2" d="M3337.6709 566 L3450.3706 566" clip-path="url(#clipPath2)"/>
      <path stroke-dasharray="6,2" d="M3458.3706 566 L3446.3706 561 L3449.3706 566 L3446.3706 571 Z" clip-path="url(#clipPath2)" stroke="none"/>
      <text x="3357.9133" xml:space="preserve" y="544.5184" clip-path="url(#clipPath2)" font-family="sans-serif" stroke="none">which causes</text>
      <path fill="none" d="M2804.5962 566 L2935.0276 566" clip-path="url(#clipPath2)"/>
      <path d="M2943.0276 566 L2931.0276 561 L2934.0276 566 L2931.0276 571 Z" clip-path="url(#clipPath2)" stroke="none"/>
      <text x="2823.7117" xml:space="preserve" y="555.051" clip-path="url(#clipPath2)" font-family="sans-serif" stroke="none">Just ActionValue</text>
      <path fill="none" d="M3145.928 566 L3199.1455 566" clip-path="url(#clipPath2)"/>
      <path d="M3207.1455 566 L3195.1455 561 L3198.1455 566 L3195.1455 571 Z" clip-path="url(#clipPath2)" stroke="none"/>
    </g>
  </g>
</svg>
