<?xml version="1.0" encoding="UTF-8"?><svg xmlns="http://www.w3.org/2000/svg" xmlns:xlink="http://www.w3.org/1999/xlink" fill-opacity="1" color-rendering="auto" color-interpolation="auto" text-rendering="auto" stroke="black" stroke-linecap="square" width="545" stroke-miterlimit="10" shape-rendering="auto" stroke-opacity="1" fill="black" stroke-dasharray="none" font-weight="normal" stroke-width="1" height="84" font-family="'Dialog'" font-style="normal" stroke-linejoin="miter" font-size="12px" stroke-dashoffset="0" image-rendering="auto">
  <!--Generated by ySVG 2.5-->
  <defs id="genericDefs"/>
  <g>
    <defs id="defs1">
      <clipPath clipPathUnits="userSpaceOnUse" id="clipPath1">
        <path d="M0 0 L545 0 L545 84 L0 84 L0 0 Z"/>
      </clipPath>
      <clipPath clipPathUnits="userSpaceOnUse" id="clipPath2">
        <path d="M1522 512 L2067 512 L2067 596 L1522 596 L1522 512 Z"/>
      </clipPath>
    </defs>
    <g fill="white" text-rendering="geometricPrecision" shape-rendering="geometricPrecision" transform="translate(-1522,-512)" stroke="white">
      <rect x="1522" width="545" height="84" y="512" clip-path="url(#clipPath2)" stroke="none"/>
    </g>
    <g fill="rgb(255,204,0)" text-rendering="geometricPrecision" shape-rendering="geometricPrecision" transform="matrix(1,0,0,1,-1522,-512)" stroke="rgb(255,204,0)">
      <rect x="1537.9675" width="181.8945" height="30" y="551" clip-path="url(#clipPath2)" stroke="none"/>
    </g>
    <g text-rendering="geometricPrecision" stroke-miterlimit="1.45" shape-rendering="geometricPrecision" transform="matrix(1,0,0,1,-1522,-512)" stroke-linecap="butt">
      <rect fill="none" x="1537.9675" width="181.8945" height="30" y="551" clip-path="url(#clipPath2)"/>
      <text x="1554.6823" xml:space="preserve" y="570.1543" clip-path="url(#clipPath2)" font-family="sans-serif" stroke="none">component's initial state</text>
    </g>
    <g fill="rgb(255,204,0)" text-rendering="geometricPrecision" shape-rendering="geometricPrecision" transform="matrix(1,0,0,1,-1522,-512)" stroke="rgb(255,204,0)">
      <rect x="1861.0409" width="190.4785" height="30" y="551" clip-path="url(#clipPath2)" stroke="none"/>
    </g>
    <g text-rendering="geometricPrecision" stroke-miterlimit="1.45" shape-rendering="geometricPrecision" transform="matrix(1,0,0,1,-1522,-512)" stroke-linecap="butt">
      <rect fill="none" x="1861.0409" width="190.4785" height="30" y="551" clip-path="url(#clipPath2)"/>
      <text x="1868.0409" xml:space="preserve" y="570.1543" clip-path="url(#clipPath2)" font-family="sans-serif" stroke="none">component's initial rendering</text>
      <path fill="none" d="M1719.8619 566 L1853.0409 566" clip-path="url(#clipPath2)"/>
      <path d="M1861.0409 566 L1849.0409 561 L1852.0409 566 L1849.0409 571 Z" clip-path="url(#clipPath2)" stroke="none"/>
      <text x="1734.9368" xml:space="preserve" y="540.1543" clip-path="url(#clipPath2)" font-family="sans-serif" stroke="none">is used to produce</text>
    </g>
  </g>
</svg>
